<?xml version="1.0" encoding="utf-8" standalone="no"?>
<!DOCTYPE svg PUBLIC "-//W3C//DTD SVG 1.1//EN"
  "http://www.w3.org/Graphics/SVG/1.1/DTD/svg11.dtd">
<svg height="432pt" version="1.1" viewBox="0 0 288 432" width="288pt" xmlns="http://www.w3.org/2000/svg" xmlns:xlink="http://www.w3.org/1999/xlink">
 <metadata>
  <rdf:RDF xmlns:cc="http://creativecommons.org/ns#" xmlns:dc="http://purl.org/dc/elements/1.1/" xmlns:rdf="http://www.w3.org/1999/02/22-rdf-syntax-ns#">
   <cc:Work>
    <dc:type rdf:resource="http://purl.org/dc/dcmitype/StillImage"/>
    <dc:date>2022-07-24T21:03:35.198995</dc:date>
    <dc:format>image/svg+xml</dc:format>
    <dc:creator>
     <cc:Agent>
      <dc:title>Matplotlib v3.4.1, https://matplotlib.org/</dc:title>
     </cc:Agent>
    </dc:creator>
   </cc:Work>
  </rdf:RDF>
 </metadata>
 <defs>
  <style type="text/css">*{stroke-linecap:butt;stroke-linejoin:round;}</style>
 </defs>
 <g id="figure_1">
  <g id="patch_1">
   <path d="M 0 432 
L 288 432 
L 288 0 
L 0 0 
z
" style="fill:none;"/>
  </g>
  <g id="axes_1">
   <g id="patch_2">
    <path d="M 36 378 
L 259.2 378 
L 259.2 51.84 
L 36 51.84 
z
" style="fill:#ffffff;"/>
   </g>
   <g id="PolyCollection_1">
    <defs>
     <path d="M 50.43087 -318.328508 
L 50.43087 -318.706133 
L 51.993304 -318.744327 
L 53.555737 -318.788025 
L 55.118171 -318.837525 
L 56.680605 -318.893038 
L 58.243039 -318.954672 
L 59.805473 -319.022413 
L 61.367907 -319.096114 
L 62.93034 -319.175484 
L 64.492774 -319.260089 
L 66.055208 -319.349356 
L 67.617642 -319.442581 
L 69.180076 -319.53895 
L 70.742509 -319.637563 
L 72.304943 -319.737468 
L 73.867377 -319.837692 
L 75.429811 -319.937283 
L 76.992245 -320.03535 
L 78.554678 -320.131101 
L 80.117112 -320.22388 
L 81.679546 -320.313198 
L 83.24198 -320.398761 
L 84.804414 -320.480486 
L 86.366848 -320.558512 
L 87.929281 -320.633201 
L 89.491715 -320.705134 
L 91.054149 -320.775098 
L 92.616583 -320.844064 
L 94.179017 -320.913162 
L 95.74145 -320.983652 
L 97.303884 -321.05689 
L 98.866318 -321.134294 
L 100.428752 -321.217299 
L 101.991186 -321.307327 
L 103.55362 -321.405739 
L 105.116053 -321.513798 
L 106.678487 -321.632627 
L 108.240921 -321.763173 
L 109.803355 -321.906171 
L 111.365789 -322.06211 
L 112.928222 -322.231208 
L 114.490656 -322.413396 
L 116.05309 -322.608308 
L 117.615524 -322.81528 
L 119.177958 -323.033368 
L 120.740391 -323.261368 
L 122.302825 -323.497854 
L 123.865259 -323.741218 
L 125.427693 -323.989724 
L 126.990127 -324.241559 
L 128.552561 -324.494881 
L 130.114994 -324.74787 
L 131.677428 -324.998757 
L 133.239862 -325.245857 
L 134.802296 -325.487569 
L 136.36473 -325.722371 
L 137.927163 -325.948803 
L 139.489597 -326.165427 
L 141.052031 -326.370783 
L 142.614465 -326.563346 
L 144.176899 -326.741474 
L 145.739332 -326.903376 
L 147.301766 -327.047082 
L 148.8642 -327.170442 
L 150.426634 -327.271142 
L 151.989068 -327.346744 
L 153.551502 -327.394753 
L 155.113935 -327.412708 
L 156.676369 -327.398282 
L 158.238803 -327.349404 
L 159.801237 -327.264381 
L 161.363671 -327.142017 
L 162.926104 -326.981716 
L 164.488538 -326.783576 
L 166.050972 -326.548443 
L 167.613406 -326.277947 
L 169.17584 -325.974493 
L 170.738273 -325.641224 
L 172.300707 -325.281949 
L 173.863141 -324.901037 
L 175.425575 -324.503291 
L 176.988009 -324.093803 
L 178.550443 -323.6778 
L 180.112876 -323.26048 
L 181.67531 -322.84687 
L 183.237744 -322.441676 
L 184.800178 -322.049173 
L 186.362612 -321.6731 
L 187.925045 -321.316596 
L 189.487479 -320.982153 
L 191.049913 -320.671603 
L 192.612347 -320.386128 
L 194.174781 -320.126293 
L 195.737215 -319.892096 
L 197.299648 -319.68304 
L 198.862082 -319.498199 
L 200.424516 -319.33631 
L 201.98695 -319.195846 
L 203.549384 -319.075101 
L 205.111817 -318.972262 
L 205.111817 -318.062379 
L 205.111817 -318.062379 
L 203.549384 -317.95954 
L 201.98695 -317.838795 
L 200.424516 -317.698331 
L 198.862082 -317.536442 
L 197.299648 -317.351601 
L 195.737215 -317.142545 
L 194.174781 -316.908349 
L 192.612347 -316.648513 
L 191.049913 -316.363038 
L 189.487479 -316.052488 
L 187.925045 -315.718045 
L 186.362612 -315.361541 
L 184.800178 -314.985468 
L 183.237744 -314.592965 
L 181.67531 -314.187771 
L 180.112876 -313.774161 
L 178.550443 -313.356842 
L 176.988009 -312.940838 
L 175.425575 -312.531351 
L 173.863141 -312.133605 
L 172.300707 -311.752692 
L 170.738273 -311.393417 
L 169.17584 -311.060148 
L 167.613406 -310.756694 
L 166.050972 -310.486198 
L 164.488538 -310.251065 
L 162.926104 -310.052925 
L 161.363671 -309.892625 
L 159.801237 -309.77026 
L 158.238803 -309.685238 
L 156.676369 -309.63636 
L 155.113935 -309.621933 
L 153.551502 -309.639888 
L 151.989068 -309.687897 
L 150.426634 -309.763499 
L 148.8642 -309.864199 
L 147.301766 -309.987559 
L 145.739332 -310.131265 
L 144.176899 -310.293167 
L 142.614465 -310.471295 
L 141.052031 -310.663858 
L 139.489597 -310.869214 
L 137.927163 -311.085838 
L 136.36473 -311.31227 
L 134.802296 -311.547073 
L 133.239862 -311.788784 
L 131.677428 -312.035884 
L 130.114994 -312.286772 
L 128.552561 -312.53976 
L 126.990127 -312.793082 
L 125.427693 -313.044917 
L 123.865259 -313.293423 
L 122.302825 -313.536787 
L 120.740391 -313.773273 
L 119.177958 -314.001273 
L 117.615524 -314.219361 
L 116.05309 -314.426334 
L 114.490656 -314.621245 
L 112.928222 -314.803433 
L 111.365789 -314.972532 
L 109.803355 -315.12847 
L 108.240921 -315.271468 
L 106.678487 -315.402015 
L 105.116053 -315.520844 
L 103.55362 -315.628902 
L 101.991186 -315.727314 
L 100.428752 -315.817342 
L 98.866318 -315.900347 
L 97.303884 -315.977751 
L 95.74145 -316.050989 
L 94.179017 -316.12148 
L 92.616583 -316.190577 
L 91.054149 -316.259543 
L 89.491715 -316.329507 
L 87.929281 -316.40144 
L 86.366848 -316.476129 
L 84.804414 -316.554155 
L 83.24198 -316.63588 
L 81.679546 -316.721443 
L 80.117112 -316.810762 
L 78.554678 -316.90354 
L 76.992245 -316.999291 
L 75.429811 -317.097358 
L 73.867377 -317.196949 
L 72.304943 -317.297173 
L 70.742509 -317.397078 
L 69.180076 -317.495692 
L 67.617642 -317.59206 
L 66.055208 -317.685285 
L 64.492774 -317.774552 
L 62.93034 -317.859157 
L 61.367907 -317.938527 
L 59.805473 -318.012228 
L 58.243039 -318.079969 
L 56.680605 -318.141603 
L 55.118171 -318.197116 
L 53.555737 -318.246616 
L 51.993304 -318.290314 
L 50.43087 -318.328508 
z
" id="m542be2108f" style="stroke:#2f2f2f;stroke-opacity:0.6;stroke-width:1.5;"/>
    </defs>
    <g clip-path="url(#p4f06bff4ec)">
     <use style="fill:#1b8083;fill-opacity:0.6;stroke:#2f2f2f;stroke-opacity:0.6;stroke-width:1.5;" x="0" xlink:href="#m542be2108f" y="432"/>
    </g>
   </g>
   <g id="PolyCollection_2">
    <defs>
     <path d="M 100.108161 -255.845579 
L 100.108161 -256.343129 
L 101.386078 -256.397369 
L 102.663994 -256.460324 
L 103.941911 -256.532696 
L 105.219828 -256.615116 
L 106.497744 -256.708118 
L 107.775661 -256.812131 
L 109.053577 -256.927459 
L 110.331494 -257.054283 
L 111.60941 -257.192666 
L 112.887327 -257.342556 
L 114.165244 -257.503811 
L 115.44316 -257.676222 
L 116.721077 -257.859536 
L 117.998993 -258.053483 
L 119.27691 -258.257807 
L 120.554826 -258.472275 
L 121.832743 -258.696692 
L 123.110659 -258.930898 
L 124.388576 -259.17475 
L 125.666493 -259.428101 
L 126.944409 -259.690755 
L 128.222326 -259.962426 
L 129.500242 -260.242691 
L 130.778159 -260.530934 
L 132.056075 -260.826314 
L 133.333992 -261.127732 
L 134.611909 -261.43382 
L 135.889825 -261.74295 
L 137.167742 -262.053257 
L 138.445658 -262.362697 
L 139.723575 -262.669101 
L 141.001491 -262.970259 
L 142.279408 -263.264 
L 143.557324 -263.548273 
L 144.835241 -263.821223 
L 146.113158 -264.081246 
L 147.391074 -264.327031 
L 148.668991 -264.557574 
L 149.946907 -264.772176 
L 151.224824 -264.970412 
L 152.50274 -265.152081 
L 153.780657 -265.317152 
L 155.058574 -265.465688 
L 156.33649 -265.597779 
L 157.614407 -265.713477 
L 158.892323 -265.812735 
L 160.17024 -265.89537 
L 161.448156 -265.961032 
L 162.726073 -266.009198 
L 164.003989 -266.03918 
L 165.281906 -266.050151 
L 166.559823 -266.041184 
L 167.837739 -266.011305 
L 169.115656 -265.959551 
L 170.393572 -265.885035 
L 171.671489 -265.787014 
L 172.949405 -265.664953 
L 174.227322 -265.518587 
L 175.505239 -265.347972 
L 176.783155 -265.153527 
L 178.061072 -264.936062 
L 179.338988 -264.696788 
L 180.616905 -264.437307 
L 181.894821 -264.159588 
L 183.172738 -263.86592 
L 184.450654 -263.558851 
L 185.728571 -263.241109 
L 187.006488 -262.915516 
L 188.284404 -262.584898 
L 189.562321 -262.251995 
L 190.840237 -261.919377 
L 192.118154 -261.589379 
L 193.39607 -261.264042 
L 194.673987 -260.945083 
L 195.951904 -260.633887 
L 197.22982 -260.331511 
L 198.507737 -260.038715 
L 199.785653 -259.756003 
L 201.06357 -259.483677 
L 202.341486 -259.221895 
L 203.619403 -258.970722 
L 204.897319 -258.730185 
L 206.175236 -258.500312 
L 207.453153 -258.28116 
L 208.731069 -258.072832 
L 210.008986 -257.875475 
L 211.286902 -257.689272 
L 212.564819 -257.514426 
L 213.842735 -257.35113 
L 215.120652 -257.199541 
L 216.398568 -257.059755 
L 217.676485 -256.931778 
L 218.954402 -256.815513 
L 220.232318 -256.710744 
L 221.510235 -256.617137 
L 222.788151 -256.534238 
L 224.066068 -256.461489 
L 225.343984 -256.398242 
L 226.621901 -256.343776 
L 226.621901 -255.844932 
L 226.621901 -255.844932 
L 225.343984 -255.790466 
L 224.066068 -255.727219 
L 222.788151 -255.65447 
L 221.510235 -255.571571 
L 220.232318 -255.477964 
L 218.954402 -255.373195 
L 217.676485 -255.25693 
L 216.398568 -255.128953 
L 215.120652 -254.989167 
L 213.842735 -254.837578 
L 212.564819 -254.674282 
L 211.286902 -254.499436 
L 210.008986 -254.313234 
L 208.731069 -254.115876 
L 207.453153 -253.907548 
L 206.175236 -253.688396 
L 204.897319 -253.458523 
L 203.619403 -253.217987 
L 202.341486 -252.966813 
L 201.06357 -252.705031 
L 199.785653 -252.432705 
L 198.507737 -252.149993 
L 197.22982 -251.857197 
L 195.951904 -251.554821 
L 194.673987 -251.243625 
L 193.39607 -250.924666 
L 192.118154 -250.599329 
L 190.840237 -250.269331 
L 189.562321 -249.936714 
L 188.284404 -249.60381 
L 187.006488 -249.273192 
L 185.728571 -248.947599 
L 184.450654 -248.629857 
L 183.172738 -248.322788 
L 181.894821 -248.029121 
L 180.616905 -247.751402 
L 179.338988 -247.49192 
L 178.061072 -247.252646 
L 176.783155 -247.035181 
L 175.505239 -246.840736 
L 174.227322 -246.670121 
L 172.949405 -246.523755 
L 171.671489 -246.401694 
L 170.393572 -246.303673 
L 169.115656 -246.229157 
L 167.837739 -246.177403 
L 166.559823 -246.147524 
L 165.281906 -246.138557 
L 164.003989 -246.149528 
L 162.726073 -246.17951 
L 161.448156 -246.227676 
L 160.17024 -246.293338 
L 158.892323 -246.375973 
L 157.614407 -246.475232 
L 156.33649 -246.590929 
L 155.058574 -246.723021 
L 153.780657 -246.871556 
L 152.50274 -247.036627 
L 151.224824 -247.218296 
L 149.946907 -247.416532 
L 148.668991 -247.631134 
L 147.391074 -247.861677 
L 146.113158 -248.107462 
L 144.835241 -248.367485 
L 143.557324 -248.640435 
L 142.279408 -248.924708 
L 141.001491 -249.218449 
L 139.723575 -249.519607 
L 138.445658 -249.826011 
L 137.167742 -250.135451 
L 135.889825 -250.445759 
L 134.611909 -250.754888 
L 133.333992 -251.060976 
L 132.056075 -251.362394 
L 130.778159 -251.657774 
L 129.500242 -251.946018 
L 128.222326 -252.226282 
L 126.944409 -252.497954 
L 125.666493 -252.760607 
L 124.388576 -253.013958 
L 123.110659 -253.25781 
L 121.832743 -253.492016 
L 120.554826 -253.716433 
L 119.27691 -253.930901 
L 117.998993 -254.135225 
L 116.721077 -254.329173 
L 115.44316 -254.512486 
L 114.165244 -254.684897 
L 112.887327 -254.846152 
L 111.60941 -254.996042 
L 110.331494 -255.134425 
L 109.053577 -255.26125 
L 107.775661 -255.376577 
L 106.497744 -255.48059 
L 105.219828 -255.573592 
L 103.941911 -255.656012 
L 102.663994 -255.728384 
L 101.386078 -255.791339 
L 100.108161 -255.845579 
z
" id="md2943762f7" style="stroke:#2f2f2f;stroke-opacity:0.6;stroke-width:1.5;"/>
    </defs>
    <g clip-path="url(#p4f06bff4ec)">
     <use style="fill:#1b8083;fill-opacity:0.6;stroke:#2f2f2f;stroke-opacity:0.6;stroke-width:1.5;" x="0" xlink:href="#md2943762f7" y="432"/>
    </g>
   </g>
   <g id="PolyCollection_3">
    <defs>
     <path d="M 155.59836 -192.860414 
L 155.59836 -194.482361 
L 156.05093 -194.642419 
L 156.503501 -194.826378 
L 156.956071 -195.036212 
L 157.408642 -195.273771 
L 157.861212 -195.540727 
L 158.313782 -195.838518 
L 158.766353 -196.168295 
L 159.218923 -196.530883 
L 159.671494 -196.926729 
L 160.124064 -197.355882 
L 160.576634 -197.817961 
L 161.029205 -198.31215 
L 161.481775 -198.837194 
L 161.934346 -199.391413 
L 162.386916 -199.972722 
L 162.839486 -200.578661 
L 163.292057 -201.206433 
L 163.744627 -201.85295 
L 164.197198 -202.514879 
L 164.649768 -203.188693 
L 165.102339 -203.870723 
L 165.554909 -204.557209 
L 166.007479 -205.24435 
L 166.46005 -205.928353 
L 166.91262 -206.605481 
L 167.365191 -207.272105 
L 167.817761 -207.924746 
L 168.270331 -208.560127 
L 168.722902 -209.175225 
L 169.175472 -209.767317 
L 169.628043 -210.334035 
L 170.080613 -210.873416 
L 170.533184 -211.383947 
L 170.985754 -211.864611 
L 171.438324 -212.314922 
L 171.890895 -212.734949 
L 172.343465 -213.125327 
L 172.796036 -213.487256 
L 173.248606 -213.822473 
L 173.701176 -214.13321 
L 174.153747 -214.422136 
L 174.606317 -214.69226 
L 175.058888 -214.94684 
L 175.511458 -215.189251 
L 175.964029 -215.422854 
L 176.416599 -215.65085 
L 176.869169 -215.876128 
L 177.32174 -216.101114 
L 177.77431 -216.327628 
L 178.226881 -216.556754 
L 178.679451 -216.788721 
L 179.132021 -217.022821 
L 179.584592 -217.257343 
L 180.037162 -217.489549 
L 180.489733 -217.715687 
L 180.942303 -217.931035 
L 181.394873 -218.129994 
L 181.847444 -218.306218 
L 182.300014 -218.452771 
L 182.752585 -218.562332 
L 183.205155 -218.627406 
L 183.657726 -218.640574 
L 184.110296 -218.594735 
L 184.562866 -218.48336 
L 185.015437 -218.300734 
L 185.468007 -218.042174 
L 185.920578 -217.704228 
L 186.373148 -217.284831 
L 186.825718 -216.783417 
L 187.278289 -216.200991 
L 187.730859 -215.540141 
L 188.18343 -214.805003 
L 188.636 -214.001173 
L 189.088571 -213.135576 
L 189.541141 -212.21629 
L 189.993711 -211.25234 
L 190.446282 -210.253457 
L 190.898852 -209.229836 
L 191.351423 -208.191874 
L 191.803993 -207.149916 
L 192.256563 -206.114011 
L 192.709134 -205.093693 
L 193.161704 -204.097781 
L 193.614275 -203.13422 
L 194.066845 -202.209944 
L 194.519416 -201.330795 
L 194.971986 -200.501466 
L 195.424556 -199.725486 
L 195.877127 -199.00524 
L 196.329697 -198.342018 
L 196.782268 -197.736095 
L 197.234838 -197.186823 
L 197.687408 -196.692748 
L 198.139979 -196.251733 
L 198.592549 -195.861083 
L 199.04512 -195.517676 
L 199.49769 -195.218085 
L 199.95026 -194.958693 
L 200.402831 -194.735799 
L 200.402831 -192.606977 
L 200.402831 -192.606977 
L 199.95026 -192.384082 
L 199.49769 -192.12469 
L 199.04512 -191.825099 
L 198.592549 -191.481692 
L 198.139979 -191.091042 
L 197.687408 -190.650027 
L 197.234838 -190.155952 
L 196.782268 -189.60668 
L 196.329697 -189.000757 
L 195.877127 -188.337535 
L 195.424556 -187.617289 
L 194.971986 -186.841309 
L 194.519416 -186.01198 
L 194.066845 -185.132831 
L 193.614275 -184.208556 
L 193.161704 -183.244994 
L 192.709134 -182.249082 
L 192.256563 -181.228764 
L 191.803993 -180.192859 
L 191.351423 -179.150901 
L 190.898852 -178.112939 
L 190.446282 -177.089318 
L 189.993711 -176.090436 
L 189.541141 -175.126485 
L 189.088571 -174.207199 
L 188.636 -173.341602 
L 188.18343 -172.537772 
L 187.730859 -171.802634 
L 187.278289 -171.141784 
L 186.825718 -170.559358 
L 186.373148 -170.057944 
L 185.920578 -169.638547 
L 185.468007 -169.300601 
L 185.015437 -169.042041 
L 184.562866 -168.859415 
L 184.110296 -168.74804 
L 183.657726 -168.702201 
L 183.205155 -168.715369 
L 182.752585 -168.780443 
L 182.300014 -168.890004 
L 181.847444 -169.036558 
L 181.394873 -169.212781 
L 180.942303 -169.411741 
L 180.489733 -169.627088 
L 180.037162 -169.853226 
L 179.584592 -170.085432 
L 179.132021 -170.319954 
L 178.679451 -170.554054 
L 178.226881 -170.786021 
L 177.77431 -171.015147 
L 177.32174 -171.241661 
L 176.869169 -171.466647 
L 176.416599 -171.691925 
L 175.964029 -171.919921 
L 175.511458 -172.153524 
L 175.058888 -172.395935 
L 174.606317 -172.650515 
L 174.153747 -172.92064 
L 173.701176 -173.209565 
L 173.248606 -173.520303 
L 172.796036 -173.855519 
L 172.343465 -174.217448 
L 171.890895 -174.607826 
L 171.438324 -175.027853 
L 170.985754 -175.478164 
L 170.533184 -175.958828 
L 170.080613 -176.469359 
L 169.628043 -177.00874 
L 169.175472 -177.575458 
L 168.722902 -178.16755 
L 168.270331 -178.782648 
L 167.817761 -179.418029 
L 167.365191 -180.07067 
L 166.91262 -180.737294 
L 166.46005 -181.414423 
L 166.007479 -182.098425 
L 165.554909 -182.785566 
L 165.102339 -183.472052 
L 164.649768 -184.154082 
L 164.197198 -184.827896 
L 163.744627 -185.489825 
L 163.292057 -186.136342 
L 162.839486 -186.764115 
L 162.386916 -187.370053 
L 161.934346 -187.951362 
L 161.481775 -188.505581 
L 161.029205 -189.030626 
L 160.576634 -189.524814 
L 160.124064 -189.986893 
L 159.671494 -190.416046 
L 159.218923 -190.811892 
L 158.766353 -191.17448 
L 158.313782 -191.504257 
L 157.861212 -191.802048 
L 157.408642 -192.069004 
L 156.956071 -192.306563 
L 156.503501 -192.516397 
L 156.05093 -192.700356 
L 155.59836 -192.860414 
z
" id="m7e094d0d19" style="stroke:#2f2f2f;stroke-opacity:0.6;stroke-width:1.5;"/>
    </defs>
    <g clip-path="url(#p4f06bff4ec)">
     <use style="fill:#1b8083;fill-opacity:0.6;stroke:#2f2f2f;stroke-opacity:0.6;stroke-width:1.5;" x="0" xlink:href="#m7e094d0d19" y="432"/>
    </g>
   </g>
   <g id="PolyCollection_4">
    <defs>
     <path d="M 46.145455 -131.076591 
L 46.145455 -131.420251 
L 48.195041 -131.458396 
L 50.244628 -131.502308 
L 52.294215 -131.552171 
L 54.343802 -131.608 
L 56.393388 -131.669609 
L 58.442975 -131.73658 
L 60.492562 -131.808246 
L 62.542149 -131.883675 
L 64.591736 -131.961684 
L 66.641322 -132.040849 
L 68.690909 -132.119546 
L 70.740496 -132.196 
L 72.790083 -132.26835 
L 74.839669 -132.334725 
L 76.889256 -132.39333 
L 78.938843 -132.442531 
L 80.98843 -132.480943 
L 83.038017 -132.507508 
L 85.087603 -132.521561 
L 87.13719 -132.522884 
L 89.186777 -132.511737 
L 91.236364 -132.488872 
L 93.28595 -132.455531 
L 95.335537 -132.413419 
L 97.385124 -132.364666 
L 99.434711 -132.311779 
L 101.484298 -132.257588 
L 103.533884 -132.205181 
L 105.583471 -132.157849 
L 107.633058 -132.11903 
L 109.682645 -132.092256 
L 111.732231 -132.081105 
L 113.781818 -132.089159 
L 115.831405 -132.119953 
L 117.880992 -132.176932 
L 119.930579 -132.263387 
L 121.980165 -132.38239 
L 124.029752 -132.536711 
L 126.079339 -132.728713 
L 128.128926 -132.960241 
L 130.178512 -133.232493 
L 132.228099 -133.545884 
L 134.277686 -133.89991 
L 136.327273 -134.29302 
L 138.37686 -134.722511 
L 140.426446 -135.184452 
L 142.476033 -135.673645 
L 144.52562 -136.183653 
L 146.575207 -136.706866 
L 148.624793 -137.23465 
L 150.67438 -137.757545 
L 152.723967 -138.265529 
L 154.773554 -138.748327 
L 156.82314 -139.195766 
L 158.872727 -139.598137 
L 160.922314 -139.946565 
L 162.971901 -140.233362 
L 165.021488 -140.452335 
L 167.071074 -140.599034 
L 169.120661 -140.670927 
L 171.170248 -140.667493 
L 173.219835 -140.590221 
L 175.269421 -140.442509 
L 177.319008 -140.229495 
L 179.368595 -139.957792 
L 181.418182 -139.635182 
L 183.467769 -139.270263 
L 185.517355 -138.872074 
L 187.566942 -138.449729 
L 189.616529 -138.012076 
L 191.666116 -137.567388 
L 193.715702 -137.123126 
L 195.765289 -136.685748 
L 197.814876 -136.260603 
L 199.864463 -135.851887 
L 201.91405 -135.462666 
L 203.963636 -135.094949 
L 206.013223 -134.749811 
L 208.06281 -134.427541 
L 210.112397 -134.127807 
L 212.161983 -133.849826 
L 214.21157 -133.592519 
L 216.261157 -133.354653 
L 218.310744 -133.134955 
L 220.360331 -132.932201 
L 222.409917 -132.74527 
L 224.459504 -132.573175 
L 226.509091 -132.415073 
L 228.558678 -132.270246 
L 230.608264 -132.138085 
L 232.657851 -132.01805 
L 234.707438 -131.90964 
L 236.757025 -131.812365 
L 238.806612 -131.725712 
L 240.856198 -131.649136 
L 242.905785 -131.582043 
L 244.955372 -131.523792 
L 247.004959 -131.473698 
L 249.054545 -131.431043 
L 249.054545 -131.065799 
L 249.054545 -131.065799 
L 247.004959 -131.023144 
L 244.955372 -130.97305 
L 242.905785 -130.914799 
L 240.856198 -130.847706 
L 238.806612 -130.77113 
L 236.757025 -130.684477 
L 234.707438 -130.587202 
L 232.657851 -130.478793 
L 230.608264 -130.358757 
L 228.558678 -130.226596 
L 226.509091 -130.081769 
L 224.459504 -129.923667 
L 222.409917 -129.751573 
L 220.360331 -129.564641 
L 218.310744 -129.361887 
L 216.261157 -129.142189 
L 214.21157 -128.904323 
L 212.161983 -128.647016 
L 210.112397 -128.369035 
L 208.06281 -128.069301 
L 206.013223 -127.747031 
L 203.963636 -127.401893 
L 201.91405 -127.034176 
L 199.864463 -126.644955 
L 197.814876 -126.236239 
L 195.765289 -125.811095 
L 193.715702 -125.373716 
L 191.666116 -124.929454 
L 189.616529 -124.484767 
L 187.566942 -124.047113 
L 185.517355 -123.624768 
L 183.467769 -123.226579 
L 181.418182 -122.86166 
L 179.368595 -122.539051 
L 177.319008 -122.267347 
L 175.269421 -122.054333 
L 173.219835 -121.906621 
L 171.170248 -121.829349 
L 169.120661 -121.825916 
L 167.071074 -121.897808 
L 165.021488 -122.044507 
L 162.971901 -122.26348 
L 160.922314 -122.550277 
L 158.872727 -122.898706 
L 156.82314 -123.301076 
L 154.773554 -123.748515 
L 152.723967 -124.231314 
L 150.67438 -124.739297 
L 148.624793 -125.262192 
L 146.575207 -125.789976 
L 144.52562 -126.313189 
L 142.476033 -126.823197 
L 140.426446 -127.312391 
L 138.37686 -127.774331 
L 136.327273 -128.203822 
L 134.277686 -128.596932 
L 132.228099 -128.950958 
L 130.178512 -129.264349 
L 128.128926 -129.536601 
L 126.079339 -129.768129 
L 124.029752 -129.960131 
L 121.980165 -130.114452 
L 119.930579 -130.233455 
L 117.880992 -130.31991 
L 115.831405 -130.376889 
L 113.781818 -130.407683 
L 111.732231 -130.415737 
L 109.682645 -130.404586 
L 107.633058 -130.377812 
L 105.583471 -130.338993 
L 103.533884 -130.291661 
L 101.484298 -130.239254 
L 99.434711 -130.185063 
L 97.385124 -130.132177 
L 95.335537 -130.083423 
L 93.28595 -130.041311 
L 91.236364 -130.00797 
L 89.186777 -129.985106 
L 87.13719 -129.973958 
L 85.087603 -129.975281 
L 83.038017 -129.989334 
L 80.98843 -130.015899 
L 78.938843 -130.054311 
L 76.889256 -130.103512 
L 74.839669 -130.162117 
L 72.790083 -130.228492 
L 70.740496 -130.300842 
L 68.690909 -130.377296 
L 66.641322 -130.455994 
L 64.591736 -130.535159 
L 62.542149 -130.613167 
L 60.492562 -130.688597 
L 58.442975 -130.760262 
L 56.393388 -130.827233 
L 54.343802 -130.888842 
L 52.294215 -130.944672 
L 50.244628 -130.994534 
L 48.195041 -131.038446 
L 46.145455 -131.076591 
z
" id="m3300e49c58" style="stroke:#2f2f2f;stroke-opacity:0.6;stroke-width:1.5;"/>
    </defs>
    <g clip-path="url(#p4f06bff4ec)">
     <use style="fill:#1b8083;fill-opacity:0.6;stroke:#2f2f2f;stroke-opacity:0.6;stroke-width:1.5;" x="0" xlink:href="#m3300e49c58" y="432"/>
    </g>
   </g>
   <g id="matplotlib.axis_1">
    <g id="xtick_1">
     <g id="line2d_1">
      <defs>
       <path d="M 0 0 
L 0 3.5 
" id="m0f59362c70" style="stroke:#000000;stroke-width:0.8;"/>
      </defs>
      <g>
       <use style="stroke:#000000;stroke-width:0.8;" x="38.843633" xlink:href="#m0f59362c70" y="378"/>
      </g>
     </g>
     <g id="text_1">
      <!-- −0.8 -->
      <g transform="translate(26.702227 392.598437)scale(0.1 -0.1)">
       <defs>
        <path d="M 678 2272 
L 4684 2272 
L 4684 1741 
L 678 1741 
L 678 2272 
z
" id="DejaVuSans-2212" transform="scale(0.015625)"/>
        <path d="M 2034 4250 
Q 1547 4250 1301 3770 
Q 1056 3291 1056 2328 
Q 1056 1369 1301 889 
Q 1547 409 2034 409 
Q 2525 409 2770 889 
Q 3016 1369 3016 2328 
Q 3016 3291 2770 3770 
Q 2525 4250 2034 4250 
z
M 2034 4750 
Q 2819 4750 3233 4129 
Q 3647 3509 3647 2328 
Q 3647 1150 3233 529 
Q 2819 -91 2034 -91 
Q 1250 -91 836 529 
Q 422 1150 422 2328 
Q 422 3509 836 4129 
Q 1250 4750 2034 4750 
z
" id="DejaVuSans-30" transform="scale(0.015625)"/>
        <path d="M 684 794 
L 1344 794 
L 1344 0 
L 684 0 
L 684 794 
z
" id="DejaVuSans-2e" transform="scale(0.015625)"/>
        <path d="M 2034 2216 
Q 1584 2216 1326 1975 
Q 1069 1734 1069 1313 
Q 1069 891 1326 650 
Q 1584 409 2034 409 
Q 2484 409 2743 651 
Q 3003 894 3003 1313 
Q 3003 1734 2745 1975 
Q 2488 2216 2034 2216 
z
M 1403 2484 
Q 997 2584 770 2862 
Q 544 3141 544 3541 
Q 544 4100 942 4425 
Q 1341 4750 2034 4750 
Q 2731 4750 3128 4425 
Q 3525 4100 3525 3541 
Q 3525 3141 3298 2862 
Q 3072 2584 2669 2484 
Q 3125 2378 3379 2068 
Q 3634 1759 3634 1313 
Q 3634 634 3220 271 
Q 2806 -91 2034 -91 
Q 1263 -91 848 271 
Q 434 634 434 1313 
Q 434 1759 690 2068 
Q 947 2378 1403 2484 
z
M 1172 3481 
Q 1172 3119 1398 2916 
Q 1625 2713 2034 2713 
Q 2441 2713 2670 2916 
Q 2900 3119 2900 3481 
Q 2900 3844 2670 4047 
Q 2441 4250 2034 4250 
Q 1625 4250 1398 4047 
Q 1172 3844 1172 3481 
z
" id="DejaVuSans-38" transform="scale(0.015625)"/>
       </defs>
       <use xlink:href="#DejaVuSans-2212"/>
       <use x="83.789062" xlink:href="#DejaVuSans-30"/>
       <use x="147.412109" xlink:href="#DejaVuSans-2e"/>
       <use x="179.199219" xlink:href="#DejaVuSans-38"/>
      </g>
     </g>
    </g>
    <g id="xtick_2">
     <g id="line2d_2">
      <g>
       <use style="stroke:#000000;stroke-width:0.8;" x="71.14008" xlink:href="#m0f59362c70" y="378"/>
      </g>
     </g>
     <g id="text_2">
      <!-- −0.6 -->
      <g transform="translate(58.998673 392.598437)scale(0.1 -0.1)">
       <defs>
        <path d="M 2113 2584 
Q 1688 2584 1439 2293 
Q 1191 2003 1191 1497 
Q 1191 994 1439 701 
Q 1688 409 2113 409 
Q 2538 409 2786 701 
Q 3034 994 3034 1497 
Q 3034 2003 2786 2293 
Q 2538 2584 2113 2584 
z
M 3366 4563 
L 3366 3988 
Q 3128 4100 2886 4159 
Q 2644 4219 2406 4219 
Q 1781 4219 1451 3797 
Q 1122 3375 1075 2522 
Q 1259 2794 1537 2939 
Q 1816 3084 2150 3084 
Q 2853 3084 3261 2657 
Q 3669 2231 3669 1497 
Q 3669 778 3244 343 
Q 2819 -91 2113 -91 
Q 1303 -91 875 529 
Q 447 1150 447 2328 
Q 447 3434 972 4092 
Q 1497 4750 2381 4750 
Q 2619 4750 2861 4703 
Q 3103 4656 3366 4563 
z
" id="DejaVuSans-36" transform="scale(0.015625)"/>
       </defs>
       <use xlink:href="#DejaVuSans-2212"/>
       <use x="83.789062" xlink:href="#DejaVuSans-30"/>
       <use x="147.412109" xlink:href="#DejaVuSans-2e"/>
       <use x="179.199219" xlink:href="#DejaVuSans-36"/>
      </g>
     </g>
    </g>
    <g id="xtick_3">
     <g id="line2d_3">
      <g>
       <use style="stroke:#000000;stroke-width:0.8;" x="103.436526" xlink:href="#m0f59362c70" y="378"/>
      </g>
     </g>
     <g id="text_3">
      <!-- −0.4 -->
      <g transform="translate(91.29512 392.598437)scale(0.1 -0.1)">
       <defs>
        <path d="M 2419 4116 
L 825 1625 
L 2419 1625 
L 2419 4116 
z
M 2253 4666 
L 3047 4666 
L 3047 1625 
L 3713 1625 
L 3713 1100 
L 3047 1100 
L 3047 0 
L 2419 0 
L 2419 1100 
L 313 1100 
L 313 1709 
L 2253 4666 
z
" id="DejaVuSans-34" transform="scale(0.015625)"/>
       </defs>
       <use xlink:href="#DejaVuSans-2212"/>
       <use x="83.789062" xlink:href="#DejaVuSans-30"/>
       <use x="147.412109" xlink:href="#DejaVuSans-2e"/>
       <use x="179.199219" xlink:href="#DejaVuSans-34"/>
      </g>
     </g>
    </g>
    <g id="xtick_4">
     <g id="line2d_4">
      <g>
       <use style="stroke:#000000;stroke-width:0.8;" x="135.732972" xlink:href="#m0f59362c70" y="378"/>
      </g>
     </g>
     <g id="text_4">
      <!-- −0.2 -->
      <g transform="translate(123.591566 392.598437)scale(0.1 -0.1)">
       <defs>
        <path d="M 1228 531 
L 3431 531 
L 3431 0 
L 469 0 
L 469 531 
Q 828 903 1448 1529 
Q 2069 2156 2228 2338 
Q 2531 2678 2651 2914 
Q 2772 3150 2772 3378 
Q 2772 3750 2511 3984 
Q 2250 4219 1831 4219 
Q 1534 4219 1204 4116 
Q 875 4013 500 3803 
L 500 4441 
Q 881 4594 1212 4672 
Q 1544 4750 1819 4750 
Q 2544 4750 2975 4387 
Q 3406 4025 3406 3419 
Q 3406 3131 3298 2873 
Q 3191 2616 2906 2266 
Q 2828 2175 2409 1742 
Q 1991 1309 1228 531 
z
" id="DejaVuSans-32" transform="scale(0.015625)"/>
       </defs>
       <use xlink:href="#DejaVuSans-2212"/>
       <use x="83.789062" xlink:href="#DejaVuSans-30"/>
       <use x="147.412109" xlink:href="#DejaVuSans-2e"/>
       <use x="179.199219" xlink:href="#DejaVuSans-32"/>
      </g>
     </g>
    </g>
    <g id="xtick_5">
     <g id="line2d_5">
      <g>
       <use style="stroke:#000000;stroke-width:0.8;" x="168.029419" xlink:href="#m0f59362c70" y="378"/>
      </g>
     </g>
     <g id="text_5">
      <!-- 0.0 -->
      <g transform="translate(160.077856 392.598437)scale(0.1 -0.1)">
       <use xlink:href="#DejaVuSans-30"/>
       <use x="63.623047" xlink:href="#DejaVuSans-2e"/>
       <use x="95.410156" xlink:href="#DejaVuSans-30"/>
      </g>
     </g>
    </g>
    <g id="xtick_6">
     <g id="line2d_6">
      <g>
       <use style="stroke:#000000;stroke-width:0.8;" x="200.325865" xlink:href="#m0f59362c70" y="378"/>
      </g>
     </g>
     <g id="text_6">
      <!-- 0.2 -->
      <g transform="translate(192.374302 392.598437)scale(0.1 -0.1)">
       <use xlink:href="#DejaVuSans-30"/>
       <use x="63.623047" xlink:href="#DejaVuSans-2e"/>
       <use x="95.410156" xlink:href="#DejaVuSans-32"/>
      </g>
     </g>
    </g>
    <g id="xtick_7">
     <g id="line2d_7">
      <g>
       <use style="stroke:#000000;stroke-width:0.8;" x="232.622311" xlink:href="#m0f59362c70" y="378"/>
      </g>
     </g>
     <g id="text_7">
      <!-- 0.4 -->
      <g transform="translate(224.670749 392.598437)scale(0.1 -0.1)">
       <use xlink:href="#DejaVuSans-30"/>
       <use x="63.623047" xlink:href="#DejaVuSans-2e"/>
       <use x="95.410156" xlink:href="#DejaVuSans-34"/>
      </g>
     </g>
    </g>
    <g id="text_8">
     <!-- PSE difference -->
     <g transform="translate(111.488281 406.276563)scale(0.1 -0.1)">
      <defs>
       <path d="M 1259 4147 
L 1259 2394 
L 2053 2394 
Q 2494 2394 2734 2622 
Q 2975 2850 2975 3272 
Q 2975 3691 2734 3919 
Q 2494 4147 2053 4147 
L 1259 4147 
z
M 628 4666 
L 2053 4666 
Q 2838 4666 3239 4311 
Q 3641 3956 3641 3272 
Q 3641 2581 3239 2228 
Q 2838 1875 2053 1875 
L 1259 1875 
L 1259 0 
L 628 0 
L 628 4666 
z
" id="DejaVuSans-50" transform="scale(0.015625)"/>
       <path d="M 3425 4513 
L 3425 3897 
Q 3066 4069 2747 4153 
Q 2428 4238 2131 4238 
Q 1616 4238 1336 4038 
Q 1056 3838 1056 3469 
Q 1056 3159 1242 3001 
Q 1428 2844 1947 2747 
L 2328 2669 
Q 3034 2534 3370 2195 
Q 3706 1856 3706 1288 
Q 3706 609 3251 259 
Q 2797 -91 1919 -91 
Q 1588 -91 1214 -16 
Q 841 59 441 206 
L 441 856 
Q 825 641 1194 531 
Q 1563 422 1919 422 
Q 2459 422 2753 634 
Q 3047 847 3047 1241 
Q 3047 1584 2836 1778 
Q 2625 1972 2144 2069 
L 1759 2144 
Q 1053 2284 737 2584 
Q 422 2884 422 3419 
Q 422 4038 858 4394 
Q 1294 4750 2059 4750 
Q 2388 4750 2728 4690 
Q 3069 4631 3425 4513 
z
" id="DejaVuSans-53" transform="scale(0.015625)"/>
       <path d="M 628 4666 
L 3578 4666 
L 3578 4134 
L 1259 4134 
L 1259 2753 
L 3481 2753 
L 3481 2222 
L 1259 2222 
L 1259 531 
L 3634 531 
L 3634 0 
L 628 0 
L 628 4666 
z
" id="DejaVuSans-45" transform="scale(0.015625)"/>
       <path id="DejaVuSans-20" transform="scale(0.015625)"/>
       <path d="M 2906 2969 
L 2906 4863 
L 3481 4863 
L 3481 0 
L 2906 0 
L 2906 525 
Q 2725 213 2448 61 
Q 2172 -91 1784 -91 
Q 1150 -91 751 415 
Q 353 922 353 1747 
Q 353 2572 751 3078 
Q 1150 3584 1784 3584 
Q 2172 3584 2448 3432 
Q 2725 3281 2906 2969 
z
M 947 1747 
Q 947 1113 1208 752 
Q 1469 391 1925 391 
Q 2381 391 2643 752 
Q 2906 1113 2906 1747 
Q 2906 2381 2643 2742 
Q 2381 3103 1925 3103 
Q 1469 3103 1208 2742 
Q 947 2381 947 1747 
z
" id="DejaVuSans-64" transform="scale(0.015625)"/>
       <path d="M 603 3500 
L 1178 3500 
L 1178 0 
L 603 0 
L 603 3500 
z
M 603 4863 
L 1178 4863 
L 1178 4134 
L 603 4134 
L 603 4863 
z
" id="DejaVuSans-69" transform="scale(0.015625)"/>
       <path d="M 2375 4863 
L 2375 4384 
L 1825 4384 
Q 1516 4384 1395 4259 
Q 1275 4134 1275 3809 
L 1275 3500 
L 2222 3500 
L 2222 3053 
L 1275 3053 
L 1275 0 
L 697 0 
L 697 3053 
L 147 3053 
L 147 3500 
L 697 3500 
L 697 3744 
Q 697 4328 969 4595 
Q 1241 4863 1831 4863 
L 2375 4863 
z
" id="DejaVuSans-66" transform="scale(0.015625)"/>
       <path d="M 3597 1894 
L 3597 1613 
L 953 1613 
Q 991 1019 1311 708 
Q 1631 397 2203 397 
Q 2534 397 2845 478 
Q 3156 559 3463 722 
L 3463 178 
Q 3153 47 2828 -22 
Q 2503 -91 2169 -91 
Q 1331 -91 842 396 
Q 353 884 353 1716 
Q 353 2575 817 3079 
Q 1281 3584 2069 3584 
Q 2775 3584 3186 3129 
Q 3597 2675 3597 1894 
z
M 3022 2063 
Q 3016 2534 2758 2815 
Q 2500 3097 2075 3097 
Q 1594 3097 1305 2825 
Q 1016 2553 972 2059 
L 3022 2063 
z
" id="DejaVuSans-65" transform="scale(0.015625)"/>
       <path d="M 2631 2963 
Q 2534 3019 2420 3045 
Q 2306 3072 2169 3072 
Q 1681 3072 1420 2755 
Q 1159 2438 1159 1844 
L 1159 0 
L 581 0 
L 581 3500 
L 1159 3500 
L 1159 2956 
Q 1341 3275 1631 3429 
Q 1922 3584 2338 3584 
Q 2397 3584 2469 3576 
Q 2541 3569 2628 3553 
L 2631 2963 
z
" id="DejaVuSans-72" transform="scale(0.015625)"/>
       <path d="M 3513 2113 
L 3513 0 
L 2938 0 
L 2938 2094 
Q 2938 2591 2744 2837 
Q 2550 3084 2163 3084 
Q 1697 3084 1428 2787 
Q 1159 2491 1159 1978 
L 1159 0 
L 581 0 
L 581 3500 
L 1159 3500 
L 1159 2956 
Q 1366 3272 1645 3428 
Q 1925 3584 2291 3584 
Q 2894 3584 3203 3211 
Q 3513 2838 3513 2113 
z
" id="DejaVuSans-6e" transform="scale(0.015625)"/>
       <path d="M 3122 3366 
L 3122 2828 
Q 2878 2963 2633 3030 
Q 2388 3097 2138 3097 
Q 1578 3097 1268 2742 
Q 959 2388 959 1747 
Q 959 1106 1268 751 
Q 1578 397 2138 397 
Q 2388 397 2633 464 
Q 2878 531 3122 666 
L 3122 134 
Q 2881 22 2623 -34 
Q 2366 -91 2075 -91 
Q 1284 -91 818 406 
Q 353 903 353 1747 
Q 353 2603 823 3093 
Q 1294 3584 2113 3584 
Q 2378 3584 2631 3529 
Q 2884 3475 3122 3366 
z
" id="DejaVuSans-63" transform="scale(0.015625)"/>
      </defs>
      <use xlink:href="#DejaVuSans-50"/>
      <use x="60.302734" xlink:href="#DejaVuSans-53"/>
      <use x="123.779297" xlink:href="#DejaVuSans-45"/>
      <use x="186.962891" xlink:href="#DejaVuSans-20"/>
      <use x="218.75" xlink:href="#DejaVuSans-64"/>
      <use x="282.226562" xlink:href="#DejaVuSans-69"/>
      <use x="310.009766" xlink:href="#DejaVuSans-66"/>
      <use x="345.214844" xlink:href="#DejaVuSans-66"/>
      <use x="380.419922" xlink:href="#DejaVuSans-65"/>
      <use x="441.943359" xlink:href="#DejaVuSans-72"/>
      <use x="480.806641" xlink:href="#DejaVuSans-65"/>
      <use x="542.330078" xlink:href="#DejaVuSans-6e"/>
      <use x="605.708984" xlink:href="#DejaVuSans-63"/>
      <use x="660.689453" xlink:href="#DejaVuSans-65"/>
     </g>
    </g>
   </g>
   <g id="matplotlib.axis_2">
    <g id="ytick_1">
     <g id="line2d_8">
      <defs>
       <path d="M 0 0 
L -3.5 0 
" id="m9e092bfcee" style="stroke:#000000;stroke-width:0.8;"/>
      </defs>
      <g>
       <use style="stroke:#000000;stroke-width:0.8;" x="36" xlink:href="#m9e092bfcee" y="113.482679"/>
      </g>
     </g>
     <g id="text_9">
      <!-- 1 -->
      <g transform="translate(22.6375 117.281898)scale(0.1 -0.1)">
       <defs>
        <path d="M 794 531 
L 1825 531 
L 1825 4091 
L 703 3866 
L 703 4441 
L 1819 4666 
L 2450 4666 
L 2450 531 
L 3481 531 
L 3481 0 
L 794 0 
L 794 531 
z
" id="DejaVuSans-31" transform="scale(0.015625)"/>
       </defs>
       <use xlink:href="#DejaVuSans-31"/>
      </g>
     </g>
    </g>
    <g id="ytick_2">
     <g id="line2d_9">
      <g>
       <use style="stroke:#000000;stroke-width:0.8;" x="36" xlink:href="#m9e092bfcee" y="175.905646"/>
      </g>
     </g>
     <g id="text_10">
      <!-- 2 -->
      <g transform="translate(22.6375 179.704865)scale(0.1 -0.1)">
       <use xlink:href="#DejaVuSans-32"/>
      </g>
     </g>
    </g>
    <g id="ytick_3">
     <g id="line2d_10">
      <g>
       <use style="stroke:#000000;stroke-width:0.8;" x="36" xlink:href="#m9e092bfcee" y="238.328612"/>
      </g>
     </g>
     <g id="text_11">
      <!-- 3 -->
      <g transform="translate(22.6375 242.127831)scale(0.1 -0.1)">
       <defs>
        <path d="M 2597 2516 
Q 3050 2419 3304 2112 
Q 3559 1806 3559 1356 
Q 3559 666 3084 287 
Q 2609 -91 1734 -91 
Q 1441 -91 1130 -33 
Q 819 25 488 141 
L 488 750 
Q 750 597 1062 519 
Q 1375 441 1716 441 
Q 2309 441 2620 675 
Q 2931 909 2931 1356 
Q 2931 1769 2642 2001 
Q 2353 2234 1838 2234 
L 1294 2234 
L 1294 2753 
L 1863 2753 
Q 2328 2753 2575 2939 
Q 2822 3125 2822 3475 
Q 2822 3834 2567 4026 
Q 2313 4219 1838 4219 
Q 1578 4219 1281 4162 
Q 984 4106 628 3988 
L 628 4550 
Q 988 4650 1302 4700 
Q 1616 4750 1894 4750 
Q 2613 4750 3031 4423 
Q 3450 4097 3450 3541 
Q 3450 3153 3228 2886 
Q 3006 2619 2597 2516 
z
" id="DejaVuSans-33" transform="scale(0.015625)"/>
       </defs>
       <use xlink:href="#DejaVuSans-33"/>
      </g>
     </g>
    </g>
    <g id="ytick_4">
     <g id="line2d_11">
      <g>
       <use style="stroke:#000000;stroke-width:0.8;" x="36" xlink:href="#m9e092bfcee" y="300.751579"/>
      </g>
     </g>
     <g id="text_12">
      <!-- 4 -->
      <g transform="translate(22.6375 304.550798)scale(0.1 -0.1)">
       <use xlink:href="#DejaVuSans-34"/>
      </g>
     </g>
    </g>
    <g id="text_13">
     <!-- Quartile -->
     <g transform="translate(16.557812 234.959062)rotate(-90)scale(0.1 -0.1)">
      <defs>
       <path d="M 2522 4238 
Q 1834 4238 1429 3725 
Q 1025 3213 1025 2328 
Q 1025 1447 1429 934 
Q 1834 422 2522 422 
Q 3209 422 3611 934 
Q 4013 1447 4013 2328 
Q 4013 3213 3611 3725 
Q 3209 4238 2522 4238 
z
M 3406 84 
L 4238 -825 
L 3475 -825 
L 2784 -78 
Q 2681 -84 2626 -87 
Q 2572 -91 2522 -91 
Q 1538 -91 948 567 
Q 359 1225 359 2328 
Q 359 3434 948 4092 
Q 1538 4750 2522 4750 
Q 3503 4750 4090 4092 
Q 4678 3434 4678 2328 
Q 4678 1516 4351 937 
Q 4025 359 3406 84 
z
" id="DejaVuSans-51" transform="scale(0.015625)"/>
       <path d="M 544 1381 
L 544 3500 
L 1119 3500 
L 1119 1403 
Q 1119 906 1312 657 
Q 1506 409 1894 409 
Q 2359 409 2629 706 
Q 2900 1003 2900 1516 
L 2900 3500 
L 3475 3500 
L 3475 0 
L 2900 0 
L 2900 538 
Q 2691 219 2414 64 
Q 2138 -91 1772 -91 
Q 1169 -91 856 284 
Q 544 659 544 1381 
z
M 1991 3584 
L 1991 3584 
z
" id="DejaVuSans-75" transform="scale(0.015625)"/>
       <path d="M 2194 1759 
Q 1497 1759 1228 1600 
Q 959 1441 959 1056 
Q 959 750 1161 570 
Q 1363 391 1709 391 
Q 2188 391 2477 730 
Q 2766 1069 2766 1631 
L 2766 1759 
L 2194 1759 
z
M 3341 1997 
L 3341 0 
L 2766 0 
L 2766 531 
Q 2569 213 2275 61 
Q 1981 -91 1556 -91 
Q 1019 -91 701 211 
Q 384 513 384 1019 
Q 384 1609 779 1909 
Q 1175 2209 1959 2209 
L 2766 2209 
L 2766 2266 
Q 2766 2663 2505 2880 
Q 2244 3097 1772 3097 
Q 1472 3097 1187 3025 
Q 903 2953 641 2809 
L 641 3341 
Q 956 3463 1253 3523 
Q 1550 3584 1831 3584 
Q 2591 3584 2966 3190 
Q 3341 2797 3341 1997 
z
" id="DejaVuSans-61" transform="scale(0.015625)"/>
       <path d="M 1172 4494 
L 1172 3500 
L 2356 3500 
L 2356 3053 
L 1172 3053 
L 1172 1153 
Q 1172 725 1289 603 
Q 1406 481 1766 481 
L 2356 481 
L 2356 0 
L 1766 0 
Q 1100 0 847 248 
Q 594 497 594 1153 
L 594 3053 
L 172 3053 
L 172 3500 
L 594 3500 
L 594 4494 
L 1172 4494 
z
" id="DejaVuSans-74" transform="scale(0.015625)"/>
       <path d="M 603 4863 
L 1178 4863 
L 1178 0 
L 603 0 
L 603 4863 
z
" id="DejaVuSans-6c" transform="scale(0.015625)"/>
      </defs>
      <use xlink:href="#DejaVuSans-51"/>
      <use x="78.710938" xlink:href="#DejaVuSans-75"/>
      <use x="142.089844" xlink:href="#DejaVuSans-61"/>
      <use x="203.369141" xlink:href="#DejaVuSans-72"/>
      <use x="244.482422" xlink:href="#DejaVuSans-74"/>
      <use x="283.691406" xlink:href="#DejaVuSans-69"/>
      <use x="311.474609" xlink:href="#DejaVuSans-6c"/>
      <use x="339.257812" xlink:href="#DejaVuSans-65"/>
     </g>
    </g>
   </g>
   <g id="line2d_12">
    <path clip-path="url(#p4f06bff4ec)" d="M 107.841388 113.482679 
L 171.411797 113.482679 
" style="fill:none;stroke:#2f2f2f;stroke-linecap:square;stroke-width:1.5;"/>
   </g>
   <g id="line2d_13">
    <path clip-path="url(#p4f06bff4ec)" d="M 132.397995 113.482679 
L 162.416093 113.482679 
" style="fill:none;stroke:#2f2f2f;stroke-linecap:square;stroke-width:4.5;"/>
   </g>
   <g id="line2d_14">
    <path clip-path="url(#p4f06bff4ec)" d="M 126.329146 175.905646 
L 200.400916 175.905646 
" style="fill:none;stroke:#2f2f2f;stroke-linecap:square;stroke-width:1.5;"/>
   </g>
   <g id="line2d_15">
    <path clip-path="url(#p4f06bff4ec)" d="M 147.751436 175.905646 
L 178.957287 175.905646 
" style="fill:none;stroke:#2f2f2f;stroke-linecap:square;stroke-width:4.5;"/>
   </g>
   <g id="line2d_16">
    <path clip-path="url(#p4f06bff4ec)" d="M 166.004111 238.328612 
L 189.99708 238.328612 
" style="fill:none;stroke:#2f2f2f;stroke-linecap:square;stroke-width:1.5;"/>
   </g>
   <g id="line2d_17">
    <path clip-path="url(#p4f06bff4ec)" d="M 173.047718 238.328612 
L 185.497333 238.328612 
" style="fill:none;stroke:#2f2f2f;stroke-linecap:square;stroke-width:4.5;"/>
   </g>
   <g id="line2d_18">
    <path clip-path="url(#p4f06bff4ec)" d="M 154.091939 300.751579 
L 184.029382 300.751579 
" style="fill:none;stroke:#2f2f2f;stroke-linecap:square;stroke-width:1.5;"/>
   </g>
   <g id="line2d_19">
    <path clip-path="url(#p4f06bff4ec)" d="M 162.95236 300.751579 
L 177.732877 300.751579 
" style="fill:none;stroke:#2f2f2f;stroke-linecap:square;stroke-width:4.5;"/>
   </g>
   <g id="line2d_20">
    <path clip-path="url(#p4f06bff4ec)" d="M 168.029419 66.665455 
L 168.029419 363.174545 
" style="fill:none;stroke:#000000;stroke-linecap:square;stroke-opacity:0.1;stroke-width:1.5;"/>
   </g>
   <g id="patch_3">
    <path d="M 36 378 
L 36 51.84 
" style="fill:none;stroke:#000000;stroke-linecap:square;stroke-linejoin:miter;stroke-width:0.8;"/>
   </g>
   <g id="patch_4">
    <path d="M 259.2 378 
L 259.2 51.84 
" style="fill:none;stroke:#000000;stroke-linecap:square;stroke-linejoin:miter;stroke-width:0.8;"/>
   </g>
   <g id="patch_5">
    <path d="M 36 378 
L 259.2 378 
" style="fill:none;stroke:#000000;stroke-linecap:square;stroke-linejoin:miter;stroke-width:0.8;"/>
   </g>
   <g id="patch_6">
    <path d="M 36 51.84 
L 259.2 51.84 
" style="fill:none;stroke:#000000;stroke-linecap:square;stroke-linejoin:miter;stroke-width:0.8;"/>
   </g>
   <g id="PathCollection_1">
    <defs>
     <path d="M 0 1.5 
C 0.397805 1.5 0.77937 1.341951 1.06066 1.06066 
C 1.341951 0.77937 1.5 0.397805 1.5 0 
C 1.5 -0.397805 1.341951 -0.77937 1.06066 -1.06066 
C 0.77937 -1.341951 0.397805 -1.5 0 -1.5 
C -0.397805 -1.5 -0.77937 -1.341951 -1.06066 -1.06066 
C -1.341951 -0.77937 -1.5 -0.397805 -1.5 0 
C -1.5 0.397805 -1.341951 0.77937 -1.06066 1.06066 
C -0.77937 1.341951 -0.397805 1.5 0 1.5 
z
" id="m5e07518a76" style="stroke:#2f2f2f;stroke-opacity:0.6;"/>
    </defs>
    <g clip-path="url(#p4f06bff4ec)">
     <use style="fill:#ffffff;fill-opacity:0.6;stroke:#2f2f2f;stroke-opacity:0.6;" x="149.102662" xlink:href="#m5e07518a76" y="113.482679"/>
    </g>
   </g>
   <g id="PathCollection_2">
    <g clip-path="url(#p4f06bff4ec)">
     <use style="fill:#ffffff;fill-opacity:0.6;stroke:#2f2f2f;stroke-opacity:0.6;" x="165.051134" xlink:href="#m5e07518a76" y="175.905646"/>
    </g>
   </g>
   <g id="PathCollection_3">
    <g clip-path="url(#p4f06bff4ec)">
     <use style="fill:#ffffff;fill-opacity:0.6;stroke:#2f2f2f;stroke-opacity:0.6;" x="179.964882" xlink:href="#m5e07518a76" y="238.328612"/>
    </g>
   </g>
   <g id="PathCollection_4">
    <g clip-path="url(#p4f06bff4ec)">
     <use style="fill:#ffffff;fill-opacity:0.6;stroke:#2f2f2f;stroke-opacity:0.6;" x="168.124588" xlink:href="#m5e07518a76" y="300.751579"/>
    </g>
   </g>
  </g>
 </g>
 <defs>
  <clipPath id="p4f06bff4ec">
   <rect height="326.16" width="223.2" x="36" y="51.84"/>
  </clipPath>
 </defs>
</svg>
