<?xml version="1.0" encoding="utf-8" standalone="no"?>
<!DOCTYPE svg PUBLIC "-//W3C//DTD SVG 1.1//EN"
  "http://www.w3.org/Graphics/SVG/1.1/DTD/svg11.dtd">
<svg height="432pt" version="1.1" viewBox="0 0 288 432" width="288pt" xmlns="http://www.w3.org/2000/svg" xmlns:xlink="http://www.w3.org/1999/xlink">
 <metadata>
  <rdf:RDF xmlns:cc="http://creativecommons.org/ns#" xmlns:dc="http://purl.org/dc/elements/1.1/" xmlns:rdf="http://www.w3.org/1999/02/22-rdf-syntax-ns#">
   <cc:Work>
    <dc:type rdf:resource="http://purl.org/dc/dcmitype/StillImage"/>
    <dc:date>2022-07-25T21:39:00.322693</dc:date>
    <dc:format>image/svg+xml</dc:format>
    <dc:creator>
     <cc:Agent>
      <dc:title>Matplotlib v3.4.1, https://matplotlib.org/</dc:title>
     </cc:Agent>
    </dc:creator>
   </cc:Work>
  </rdf:RDF>
 </metadata>
 <defs>
  <style type="text/css">*{stroke-linecap:butt;stroke-linejoin:round;}</style>
 </defs>
 <g id="figure_1">
  <g id="patch_1">
   <path d="M 0 432 
L 288 432 
L 288 0 
L 0 0 
z
" style="fill:none;"/>
  </g>
  <g id="axes_1">
   <g id="patch_2">
    <path d="M 36 378 
L 259.2 378 
L 259.2 51.84 
L 36 51.84 
z
" style="fill:#ffffff;"/>
   </g>
   <g id="PolyCollection_1">
    <defs>
     <path d="M 89.096435 -318.258333 
L 89.096435 -318.776308 
L 90.39692 -318.854957 
L 91.697405 -318.949281 
L 92.99789 -319.059651 
L 94.298375 -319.185538 
L 95.59886 -319.325327 
L 96.899345 -319.476212 
L 98.19983 -319.634195 
L 99.500316 -319.794211 
L 100.800801 -319.950397 
L 102.101286 -320.096498 
L 103.401771 -320.226391 
L 104.702256 -320.334682 
L 106.002741 -320.417334 
L 107.303226 -320.472257 
L 108.603711 -320.499819 
L 109.904196 -320.503202 
L 111.204681 -320.488604 
L 112.505166 -320.465244 
L 113.805651 -320.445186 
L 115.106136 -320.442994 
L 116.406622 -320.475246 
L 117.707107 -320.55993 
L 119.007592 -320.715751 
L 120.308077 -320.961364 
L 121.608562 -321.314537 
L 122.909047 -321.791262 
L 124.209532 -322.404809 
L 125.510017 -323.164755 
L 126.810502 -324.076004 
L 128.110987 -325.13787 
L 129.411472 -326.343288 
L 130.711957 -327.678251 
L 132.012442 -329.121581 
L 133.312928 -330.645131 
L 134.613413 -332.214501 
L 135.913898 -333.790331 
L 137.214383 -335.330145 
L 138.514868 -336.790703 
L 139.815353 -338.13072 
L 141.115838 -339.313749 
L 142.416323 -340.31099 
L 143.716808 -341.103731 
L 145.017293 -341.685148 
L 146.317778 -342.061223 
L 147.618263 -342.250583 
L 148.918749 -342.283205 
L 150.219234 -342.198013 
L 151.519719 -342.039539 
L 152.820204 -341.853932 
L 154.120689 -341.684694 
L 155.421174 -341.568551 
L 156.721659 -341.531918 
L 158.022144 -341.588298 
L 159.322629 -341.736931 
L 160.623114 -341.962834 
L 161.923599 -342.238223 
L 163.224084 -342.525185 
L 164.524569 -342.779315 
L 165.825055 -342.953926 
L 167.12554 -343.004411 
L 168.426025 -342.892316 
L 169.72651 -342.588741 
L 171.026995 -342.076753 
L 172.32748 -341.352636 
L 173.627965 -340.42592 
L 174.92845 -339.318246 
L 176.228935 -338.061262 
L 177.52942 -336.693809 
L 178.829905 -335.258706 
L 180.13039 -333.799473 
L 181.430876 -332.357283 
L 182.731361 -330.968405 
L 184.031846 -329.662307 
L 185.332331 -328.460519 
L 186.632816 -327.376256 
L 187.933301 -326.414736 
L 189.233786 -325.574081 
L 190.534271 -324.846617 
L 191.834756 -324.220427 
L 193.135241 -323.680967 
L 194.435726 -323.212614 
L 195.736211 -322.800021 
L 197.036696 -322.429207 
L 198.337182 -322.08834 
L 199.637667 -321.768195 
L 200.938152 -321.462314 
L 202.238637 -321.166897 
L 203.539122 -320.880488 
L 204.839607 -320.603513 
L 206.140092 -320.33773 
L 207.440577 -320.085669 
L 208.741062 -319.850099 
L 210.041547 -319.633587 
L 211.342032 -319.438155 
L 212.642517 -319.265073 
L 213.943003 -319.114759 
L 215.243488 -318.986803 
L 216.543973 -318.880057 
L 217.844458 -318.792801 
L 217.844458 -318.241841 
L 217.844458 -318.241841 
L 216.543973 -318.154584 
L 215.243488 -318.047838 
L 213.943003 -317.919882 
L 212.642517 -317.769568 
L 211.342032 -317.596486 
L 210.041547 -317.401055 
L 208.741062 -317.184542 
L 207.440577 -316.948972 
L 206.140092 -316.696911 
L 204.839607 -316.431128 
L 203.539122 -316.154153 
L 202.238637 -315.867745 
L 200.938152 -315.572327 
L 199.637667 -315.266446 
L 198.337182 -314.946301 
L 197.036696 -314.605434 
L 195.736211 -314.23462 
L 194.435726 -313.822027 
L 193.135241 -313.353674 
L 191.834756 -312.814214 
L 190.534271 -312.188024 
L 189.233786 -311.46056 
L 187.933301 -310.619905 
L 186.632816 -309.658385 
L 185.332331 -308.574122 
L 184.031846 -307.372334 
L 182.731361 -306.066236 
L 181.430876 -304.677358 
L 180.13039 -303.235168 
L 178.829905 -301.775935 
L 177.52942 -300.340832 
L 176.228935 -298.973379 
L 174.92845 -297.716395 
L 173.627965 -296.608721 
L 172.32748 -295.682005 
L 171.026995 -294.957888 
L 169.72651 -294.4459 
L 168.426025 -294.142325 
L 167.12554 -294.03023 
L 165.825055 -294.080715 
L 164.524569 -294.255326 
L 163.224084 -294.509456 
L 161.923599 -294.796418 
L 160.623114 -295.071807 
L 159.322629 -295.29771 
L 158.022144 -295.446344 
L 156.721659 -295.502723 
L 155.421174 -295.46609 
L 154.120689 -295.349948 
L 152.820204 -295.180709 
L 151.519719 -294.995102 
L 150.219234 -294.836628 
L 148.918749 -294.751436 
L 147.618263 -294.784058 
L 146.317778 -294.973418 
L 145.017293 -295.349493 
L 143.716808 -295.930911 
L 142.416323 -296.723651 
L 141.115838 -297.720892 
L 139.815353 -298.903922 
L 138.514868 -300.243938 
L 137.214383 -301.704496 
L 135.913898 -303.24431 
L 134.613413 -304.82014 
L 133.312928 -306.38951 
L 132.012442 -307.91306 
L 130.711957 -309.35639 
L 129.411472 -310.691354 
L 128.110987 -311.896771 
L 126.810502 -312.958637 
L 125.510017 -313.869886 
L 124.209532 -314.629832 
L 122.909047 -315.243379 
L 121.608562 -315.720104 
L 120.308077 -316.073277 
L 119.007592 -316.31889 
L 117.707107 -316.474711 
L 116.406622 -316.559395 
L 115.106136 -316.591647 
L 113.805651 -316.589455 
L 112.505166 -316.569397 
L 111.204681 -316.546038 
L 109.904196 -316.53144 
L 108.603711 -316.534822 
L 107.303226 -316.562384 
L 106.002741 -316.617307 
L 104.702256 -316.699959 
L 103.401771 -316.80825 
L 102.101286 -316.938143 
L 100.800801 -317.084245 
L 99.500316 -317.240431 
L 98.19983 -317.400446 
L 96.899345 -317.558429 
L 95.59886 -317.709314 
L 94.298375 -317.849103 
L 92.99789 -317.97499 
L 91.697405 -318.085361 
L 90.39692 -318.179684 
L 89.096435 -318.258333 
z
" id="m32543c0cd7" style="stroke:#2f2f2f;stroke-opacity:0.6;stroke-width:1.5;"/>
    </defs>
    <g clip-path="url(#pc50d6decf1)">
     <use style="fill:#1b8083;fill-opacity:0.6;stroke:#2f2f2f;stroke-opacity:0.6;stroke-width:1.5;" x="0" xlink:href="#m32543c0cd7" y="432"/>
    </g>
   </g>
   <g id="PolyCollection_2">
    <defs>
     <path d="M 46.145455 -255.934639 
L 46.145455 -256.254069 
L 48.159487 -256.298278 
L 50.173519 -256.350981 
L 52.187551 -256.412717 
L 54.201583 -256.483774 
L 56.215615 -256.564139 
L 58.229647 -256.653458 
L 60.243679 -256.751032 
L 62.257711 -256.855838 
L 64.271743 -256.966591 
L 66.285776 -257.081834 
L 68.299808 -257.200058 
L 70.31384 -257.319846 
L 72.327872 -257.440012 
L 74.341904 -257.559743 
L 76.355936 -257.678703 
L 78.369968 -257.797104 
L 80.384 -257.915729 
L 82.398032 -258.035888 
L 84.412064 -258.159334 
L 86.426096 -258.288126 
L 88.440129 -258.424453 
L 90.454161 -258.570453 
L 92.468193 -258.728023 
L 94.482225 -258.898659 
L 96.496257 -259.083332 
L 98.510289 -259.282418 
L 100.524321 -259.495686 
L 102.538353 -259.72236 
L 104.552385 -259.961233 
L 106.566417 -260.210841 
L 108.58045 -260.469684 
L 110.594482 -260.736463 
L 112.608514 -261.010325 
L 114.622546 -261.291098 
L 116.636578 -261.579479 
L 118.65061 -261.877158 
L 120.664642 -262.18687 
L 122.678674 -262.512342 
L 124.692706 -262.858135 
L 126.706738 -263.229385 
L 128.720771 -263.631437 
L 130.734803 -264.069403 
L 132.748835 -264.547658 
L 134.762867 -265.069314 
L 136.776899 -265.635713 
L 138.790931 -266.245965 
L 140.804963 -266.896587 
L 142.818995 -267.581266 
L 144.833027 -268.290777 
L 146.847059 -269.013078 
L 148.861092 -269.733588 
L 150.875124 -270.435645 
L 152.889156 -271.101133 
L 154.903188 -271.711251 
L 156.91722 -272.247402 
L 158.931252 -272.692135 
L 160.945284 -273.030107 
L 162.959316 -273.249004 
L 164.973348 -273.340335 
L 166.98738 -273.300063 
L 169.001413 -273.128985 
L 171.015445 -272.832833 
L 173.029477 -272.422049 
L 175.043509 -271.911235 
L 177.057541 -271.31831 
L 179.071573 -270.663407 
L 181.085605 -269.967613 
L 183.099637 -269.251641 
L 185.113669 -268.534558 
L 187.127701 -267.832678 
L 189.141733 -267.15871 
L 191.155766 -266.521254 
L 193.169798 -265.924662 
L 195.18383 -265.369268 
L 197.197862 -264.851949 
L 199.211894 -264.366941 
L 201.225926 -263.906813 
L 203.239958 -263.463489 
L 205.25399 -263.029222 
L 207.268022 -262.597416 
L 209.282054 -262.163245 
L 211.296087 -261.724014 
L 213.310119 -261.279273 
L 215.324151 -260.830681 
L 217.338183 -260.381687 
L 219.352215 -259.937065 
L 221.366247 -259.502378 
L 223.380279 -259.083432 
L 225.394311 -258.685764 
L 227.408343 -258.314228 
L 229.422375 -257.97268 
L 231.436408 -257.663796 
L 233.45044 -257.389001 
L 235.464472 -257.148509 
L 237.478504 -256.941449 
L 239.492536 -256.766051 
L 241.506568 -256.619854 
L 243.5206 -256.49994 
L 245.534632 -256.403143 
L 245.534632 -255.785565 
L 245.534632 -255.785565 
L 243.5206 -255.688768 
L 241.506568 -255.568854 
L 239.492536 -255.422657 
L 237.478504 -255.247259 
L 235.464472 -255.0402 
L 233.45044 -254.799707 
L 231.436408 -254.524912 
L 229.422375 -254.216028 
L 227.408343 -253.87448 
L 225.394311 -253.502944 
L 223.380279 -253.105276 
L 221.366247 -252.68633 
L 219.352215 -252.251643 
L 217.338183 -251.807022 
L 215.324151 -251.358027 
L 213.310119 -250.909435 
L 211.296087 -250.464694 
L 209.282054 -250.025463 
L 207.268022 -249.591292 
L 205.25399 -249.159486 
L 203.239958 -248.725219 
L 201.225926 -248.281895 
L 199.211894 -247.821767 
L 197.197862 -247.336759 
L 195.18383 -246.81944 
L 193.169798 -246.264046 
L 191.155766 -245.667454 
L 189.141733 -245.029998 
L 187.127701 -244.35603 
L 185.113669 -243.65415 
L 183.099637 -242.937067 
L 181.085605 -242.221095 
L 179.071573 -241.525301 
L 177.057541 -240.870398 
L 175.043509 -240.277473 
L 173.029477 -239.766659 
L 171.015445 -239.355875 
L 169.001413 -239.059723 
L 166.98738 -238.888645 
L 164.973348 -238.848373 
L 162.959316 -238.939705 
L 160.945284 -239.158601 
L 158.931252 -239.496574 
L 156.91722 -239.941306 
L 154.903188 -240.477457 
L 152.889156 -241.087576 
L 150.875124 -241.753063 
L 148.861092 -242.45512 
L 146.847059 -243.17563 
L 144.833027 -243.897931 
L 142.818995 -244.607442 
L 140.804963 -245.292121 
L 138.790931 -245.942743 
L 136.776899 -246.552995 
L 134.762867 -247.119394 
L 132.748835 -247.64105 
L 130.734803 -248.119305 
L 128.720771 -248.557271 
L 126.706738 -248.959323 
L 124.692706 -249.330573 
L 122.678674 -249.676367 
L 120.664642 -250.001838 
L 118.65061 -250.31155 
L 116.636578 -250.609229 
L 114.622546 -250.89761 
L 112.608514 -251.178383 
L 110.594482 -251.452246 
L 108.58045 -251.719024 
L 106.566417 -251.977867 
L 104.552385 -252.227475 
L 102.538353 -252.466348 
L 100.524321 -252.693022 
L 98.510289 -252.906291 
L 96.496257 -253.105376 
L 94.482225 -253.29005 
L 92.468193 -253.460686 
L 90.454161 -253.618255 
L 88.440129 -253.764255 
L 86.426096 -253.900582 
L 84.412064 -254.029374 
L 82.398032 -254.152821 
L 80.384 -254.272979 
L 78.369968 -254.391604 
L 76.355936 -254.510006 
L 74.341904 -254.628965 
L 72.327872 -254.748696 
L 70.31384 -254.868862 
L 68.299808 -254.98865 
L 66.285776 -255.106874 
L 64.271743 -255.222117 
L 62.257711 -255.33287 
L 60.243679 -255.437676 
L 58.229647 -255.53525 
L 56.215615 -255.624569 
L 54.201583 -255.704934 
L 52.187551 -255.775992 
L 50.173519 -255.837728 
L 48.159487 -255.89043 
L 46.145455 -255.934639 
z
" id="m4cd5817176" style="stroke:#2f2f2f;stroke-opacity:0.6;stroke-width:1.5;"/>
    </defs>
    <g clip-path="url(#pc50d6decf1)">
     <use style="fill:#1b8083;fill-opacity:0.6;stroke:#2f2f2f;stroke-opacity:0.6;stroke-width:1.5;" x="0" xlink:href="#m4cd5817176" y="432"/>
    </g>
   </g>
   <g id="PolyCollection_3">
    <defs>
     <path d="M 124.475065 -193.022459 
L 124.475065 -194.320316 
L 125.481158 -194.501894 
L 126.487252 -194.72221 
L 127.493345 -194.986064 
L 128.499438 -195.297988 
L 129.505531 -195.662031 
L 130.511625 -196.081533 
L 131.517718 -196.558918 
L 132.523811 -197.095516 
L 133.529904 -197.691437 
L 134.535997 -198.345501 
L 135.542091 -199.055252 
L 136.548184 -199.817036 
L 137.554277 -200.626157 
L 138.56037 -201.477085 
L 139.566463 -202.363704 
L 140.572557 -203.279564 
L 141.57865 -204.218125 
L 142.584743 -205.17295 
L 143.590836 -206.137835 
L 144.596929 -207.10686 
L 145.603023 -208.074364 
L 146.609116 -209.034839 
L 147.615209 -209.982784 
L 148.621302 -210.912532 
L 149.627396 -211.8181 
L 150.633489 -212.69308 
L 151.639582 -213.530629 
L 152.645675 -214.323549 
L 153.651768 -215.064498 
L 154.657862 -215.746296 
L 155.663955 -216.362333 
L 156.670048 -216.907012 
L 157.676141 -217.376209 
L 158.682234 -217.76768 
L 159.688328 -218.081368 
L 160.694421 -218.319575 
L 161.700514 -218.486953 
L 162.706607 -218.590312 
L 163.712701 -218.638242 
L 164.718794 -218.640574 
L 165.724887 -218.607717 
L 166.73098 -218.549924 
L 167.737073 -218.476547 
L 168.743167 -218.395339 
L 169.74926 -218.311867 
L 170.755353 -218.22908 
L 171.761446 -218.147071 
L 172.767539 -218.063052 
L 173.773633 -217.971542 
L 174.779726 -217.864758 
L 175.785819 -217.733182 
L 176.791912 -217.566248 
L 177.798005 -217.353113 
L 178.804099 -217.083454 
L 179.810192 -216.748225 
L 180.816285 -216.340335 
L 181.822378 -215.855196 
L 182.828472 -215.291117 
L 183.834565 -214.649504 
L 184.840658 -213.934879 
L 185.846751 -213.15471 
L 186.852844 -212.319065 
L 187.858938 -211.440125 
L 188.865031 -210.531579 
L 189.871124 -209.607943 
L 190.877217 -208.683845 
L 191.88331 -207.773319 
L 192.889404 -206.889143 
L 193.895497 -206.042267 
L 194.90159 -205.241357 
L 195.907683 -204.492482 
L 196.913777 -203.798971 
L 197.91987 -203.161428 
L 198.925963 -202.577917 
L 199.932056 -202.044296 
L 200.938149 -201.554675 
L 201.944243 -201.101958 
L 202.950336 -200.678443 
L 203.956429 -200.276411 
L 204.962522 -199.888682 
L 205.968615 -199.50909 
L 206.974709 -199.132838 
L 207.980802 -198.756725 
L 208.986895 -198.379227 
L 209.992988 -198.000442 
L 210.999081 -197.621909 
L 212.005175 -197.246334 
L 213.011268 -196.877251 
L 214.017361 -196.518651 
L 215.023454 -196.174621 
L 216.029548 -195.849011 
L 217.035641 -195.545161 
L 218.041734 -195.265704 
L 219.047827 -195.012442 
L 220.05392 -194.786302 
L 221.060014 -194.587365 
L 222.066107 -194.414942 
L 223.0722 -194.267698 
L 224.078293 -194.1438 
L 224.078293 -193.198975 
L 224.078293 -193.198975 
L 223.0722 -193.075077 
L 222.066107 -192.927833 
L 221.060014 -192.75541 
L 220.05392 -192.556473 
L 219.047827 -192.330333 
L 218.041734 -192.077071 
L 217.035641 -191.797614 
L 216.029548 -191.493764 
L 215.023454 -191.168154 
L 214.017361 -190.824124 
L 213.011268 -190.465524 
L 212.005175 -190.096441 
L 210.999081 -189.720866 
L 209.992988 -189.342333 
L 208.986895 -188.963548 
L 207.980802 -188.58605 
L 206.974709 -188.209937 
L 205.968615 -187.833685 
L 204.962522 -187.454093 
L 203.956429 -187.066364 
L 202.950336 -186.664332 
L 201.944243 -186.240817 
L 200.938149 -185.788101 
L 199.932056 -185.298479 
L 198.925963 -184.764858 
L 197.91987 -184.181347 
L 196.913777 -183.543804 
L 195.907683 -182.850293 
L 194.90159 -182.101419 
L 193.895497 -181.300508 
L 192.889404 -180.453632 
L 191.88331 -179.569456 
L 190.877217 -178.65893 
L 189.871124 -177.734832 
L 188.865031 -176.811196 
L 187.858938 -175.90265 
L 186.852844 -175.02371 
L 185.846751 -174.188065 
L 184.840658 -173.407896 
L 183.834565 -172.693271 
L 182.828472 -172.051658 
L 181.822378 -171.487579 
L 180.816285 -171.00244 
L 179.810192 -170.59455 
L 178.804099 -170.259321 
L 177.798005 -169.989662 
L 176.791912 -169.776528 
L 175.785819 -169.609593 
L 174.779726 -169.478017 
L 173.773633 -169.371233 
L 172.767539 -169.279723 
L 171.761446 -169.195704 
L 170.755353 -169.113695 
L 169.74926 -169.030908 
L 168.743167 -168.947436 
L 167.737073 -168.866228 
L 166.73098 -168.792851 
L 165.724887 -168.735058 
L 164.718794 -168.702201 
L 163.712701 -168.704533 
L 162.706607 -168.752463 
L 161.700514 -168.855822 
L 160.694421 -169.0232 
L 159.688328 -169.261407 
L 158.682234 -169.575096 
L 157.676141 -169.966566 
L 156.670048 -170.435763 
L 155.663955 -170.980442 
L 154.657862 -171.596479 
L 153.651768 -172.278277 
L 152.645675 -173.019226 
L 151.639582 -173.812146 
L 150.633489 -174.649695 
L 149.627396 -175.524675 
L 148.621302 -176.430243 
L 147.615209 -177.359991 
L 146.609116 -178.307936 
L 145.603023 -179.268411 
L 144.596929 -180.235915 
L 143.590836 -181.204941 
L 142.584743 -182.169825 
L 141.57865 -183.12465 
L 140.572557 -184.063211 
L 139.566463 -184.979071 
L 138.56037 -185.86569 
L 137.554277 -186.716618 
L 136.548184 -187.525739 
L 135.542091 -188.287523 
L 134.535997 -188.997274 
L 133.529904 -189.651338 
L 132.523811 -190.247259 
L 131.517718 -190.783857 
L 130.511625 -191.261242 
L 129.505531 -191.680744 
L 128.499438 -192.044787 
L 127.493345 -192.356711 
L 126.487252 -192.620565 
L 125.481158 -192.840881 
L 124.475065 -193.022459 
z
" id="m300937d49d" style="stroke:#2f2f2f;stroke-opacity:0.6;stroke-width:1.5;"/>
    </defs>
    <g clip-path="url(#pc50d6decf1)">
     <use style="fill:#1b8083;fill-opacity:0.6;stroke:#2f2f2f;stroke-opacity:0.6;stroke-width:1.5;" x="0" xlink:href="#m300937d49d" y="432"/>
    </g>
   </g>
   <g id="PolyCollection_4">
    <defs>
     <path d="M 89.562372 -131.021773 
L 89.562372 -131.47507 
L 91.173404 -131.537051 
L 92.784436 -131.611739 
L 94.395468 -131.700539 
L 96.0065 -131.804716 
L 97.617532 -131.925321 
L 99.228564 -132.063114 
L 100.839597 -132.2185 
L 102.450629 -132.391478 
L 104.061661 -132.58161 
L 105.672693 -132.78802 
L 107.283725 -133.009413 
L 108.894757 -133.24414 
L 110.505789 -133.49028 
L 112.116821 -133.745755 
L 113.727853 -134.008462 
L 115.338885 -134.27641 
L 116.949917 -134.547861 
L 118.560949 -134.821446 
L 120.171981 -135.096266 
L 121.783013 -135.371941 
L 123.394045 -135.648625 
L 125.005077 -135.92696 
L 126.616109 -136.207992 
L 128.227141 -136.493032 
L 129.838173 -136.783494 
L 131.449206 -137.080704 
L 133.060238 -137.385713 
L 134.67127 -137.699133 
L 136.282302 -138.020997 
L 137.893334 -138.350686 
L 139.504366 -138.686922 
L 141.115398 -139.027824 
L 142.72643 -139.371054 
L 144.337462 -139.714019 
L 145.948494 -140.054132 
L 147.559526 -140.389095 
L 149.170558 -140.717196 
L 150.78159 -141.037567 
L 152.392622 -141.350399 
L 154.003654 -141.657067 
L 155.614686 -141.960148 
L 157.225718 -142.263334 
L 158.83675 -142.571212 
L 160.447782 -142.888937 
L 162.058815 -143.221807 
L 163.669847 -143.574775 
L 165.280879 -143.951919 
L 166.891911 -144.355935 
L 168.502943 -144.787671 
L 170.113975 -145.245761 
L 171.725007 -145.72639 
L 173.336039 -146.223214 
L 174.947071 -146.727461 
L 176.558103 -147.228205 
L 178.169135 -147.712812 
L 179.780167 -148.167525 
L 181.391199 -148.578151 
L 183.002231 -148.930806 
L 184.613263 -149.212666 
L 186.224295 -149.412661 
L 187.835327 -149.522065 
L 189.446359 -149.534948 
L 191.057392 -149.448441 
L 192.668424 -149.262813 
L 194.279456 -148.981346 
L 195.890488 -148.610039 
L 197.50152 -148.157154 
L 199.112552 -147.632654 
L 200.723584 -147.047588 
L 202.334616 -146.413453 
L 203.945648 -145.741607 
L 205.55668 -145.042759 
L 207.167712 -144.326573 
L 208.778744 -143.601409 
L 210.389776 -142.874204 
L 212.000808 -142.150487 
L 213.61184 -141.434504 
L 215.222872 -140.729441 
L 216.833904 -140.037684 
L 218.444936 -139.36111 
L 220.055968 -138.701356 
L 221.667001 -138.060039 
L 223.278033 -137.438924 
L 224.889065 -136.840003 
L 226.500097 -136.265507 
L 228.111129 -135.717845 
L 229.722161 -135.19949 
L 231.333193 -134.712831 
L 232.944225 -134.260006 
L 234.555257 -133.842748 
L 236.166289 -133.462253 
L 237.777321 -133.119086 
L 239.388353 -132.81313 
L 240.999385 -132.543591 
L 242.610417 -132.309033 
L 244.221449 -132.107469 
L 245.832481 -131.936462 
L 247.443513 -131.793252 
L 249.054545 -131.674887 
L 249.054545 -130.821955 
L 249.054545 -130.821955 
L 247.443513 -130.70359 
L 245.832481 -130.56038 
L 244.221449 -130.389373 
L 242.610417 -130.187809 
L 240.999385 -129.953251 
L 239.388353 -129.683712 
L 237.777321 -129.377756 
L 236.166289 -129.034589 
L 234.555257 -128.654094 
L 232.944225 -128.236836 
L 231.333193 -127.784011 
L 229.722161 -127.297352 
L 228.111129 -126.778998 
L 226.500097 -126.231336 
L 224.889065 -125.656839 
L 223.278033 -125.057918 
L 221.667001 -124.436803 
L 220.055968 -123.795486 
L 218.444936 -123.135732 
L 216.833904 -122.459158 
L 215.222872 -121.767401 
L 213.61184 -121.062338 
L 212.000808 -120.346355 
L 210.389776 -119.622638 
L 208.778744 -118.895433 
L 207.167712 -118.17027 
L 205.55668 -117.454083 
L 203.945648 -116.755235 
L 202.334616 -116.083389 
L 200.723584 -115.449254 
L 199.112552 -114.864188 
L 197.50152 -114.339688 
L 195.890488 -113.886803 
L 194.279456 -113.515496 
L 192.668424 -113.234029 
L 191.057392 -113.048401 
L 189.446359 -112.961894 
L 187.835327 -112.974777 
L 186.224295 -113.084182 
L 184.613263 -113.284176 
L 183.002231 -113.566036 
L 181.391199 -113.918691 
L 179.780167 -114.329317 
L 178.169135 -114.78403 
L 176.558103 -115.268637 
L 174.947071 -115.769381 
L 173.336039 -116.273628 
L 171.725007 -116.770452 
L 170.113975 -117.251081 
L 168.502943 -117.709171 
L 166.891911 -118.140907 
L 165.280879 -118.544923 
L 163.669847 -118.922067 
L 162.058815 -119.275035 
L 160.447782 -119.607905 
L 158.83675 -119.92563 
L 157.225718 -120.233508 
L 155.614686 -120.536694 
L 154.003654 -120.839775 
L 152.392622 -121.146443 
L 150.78159 -121.459275 
L 149.170558 -121.779646 
L 147.559526 -122.107747 
L 145.948494 -122.44271 
L 144.337462 -122.782823 
L 142.72643 -123.125788 
L 141.115398 -123.469018 
L 139.504366 -123.80992 
L 137.893334 -124.146156 
L 136.282302 -124.475846 
L 134.67127 -124.797709 
L 133.060238 -125.111129 
L 131.449206 -125.416138 
L 129.838173 -125.713348 
L 128.227141 -126.00381 
L 126.616109 -126.28885 
L 125.005077 -126.569882 
L 123.394045 -126.848217 
L 121.783013 -127.124901 
L 120.171981 -127.400576 
L 118.560949 -127.675396 
L 116.949917 -127.948982 
L 115.338885 -128.220432 
L 113.727853 -128.48838 
L 112.116821 -128.751087 
L 110.505789 -129.006562 
L 108.894757 -129.252702 
L 107.283725 -129.487429 
L 105.672693 -129.708822 
L 104.061661 -129.915232 
L 102.450629 -130.105364 
L 100.839597 -130.278342 
L 99.228564 -130.433728 
L 97.617532 -130.571521 
L 96.0065 -130.692126 
L 94.395468 -130.796303 
L 92.784436 -130.885103 
L 91.173404 -130.959791 
L 89.562372 -131.021773 
z
" id="mf48d12986d" style="stroke:#2f2f2f;stroke-opacity:0.6;stroke-width:1.5;"/>
    </defs>
    <g clip-path="url(#pc50d6decf1)">
     <use style="fill:#1b8083;fill-opacity:0.6;stroke:#2f2f2f;stroke-opacity:0.6;stroke-width:1.5;" x="0" xlink:href="#mf48d12986d" y="432"/>
    </g>
   </g>
   <g id="matplotlib.axis_1">
    <g id="xtick_1">
     <g id="line2d_1">
      <defs>
       <path d="M 0 0 
L 0 3.5 
" id="mfa78b0d3dd" style="stroke:#000000;stroke-width:0.8;"/>
      </defs>
      <g>
       <use style="stroke:#000000;stroke-width:0.8;" x="36.302577" xlink:href="#mfa78b0d3dd" y="378"/>
      </g>
     </g>
     <g id="text_1">
      <!-- −0.6 -->
      <g transform="translate(24.161171 392.598437)scale(0.1 -0.1)">
       <defs>
        <path d="M 678 2272 
L 4684 2272 
L 4684 1741 
L 678 1741 
L 678 2272 
z
" id="DejaVuSans-2212" transform="scale(0.015625)"/>
        <path d="M 2034 4250 
Q 1547 4250 1301 3770 
Q 1056 3291 1056 2328 
Q 1056 1369 1301 889 
Q 1547 409 2034 409 
Q 2525 409 2770 889 
Q 3016 1369 3016 2328 
Q 3016 3291 2770 3770 
Q 2525 4250 2034 4250 
z
M 2034 4750 
Q 2819 4750 3233 4129 
Q 3647 3509 3647 2328 
Q 3647 1150 3233 529 
Q 2819 -91 2034 -91 
Q 1250 -91 836 529 
Q 422 1150 422 2328 
Q 422 3509 836 4129 
Q 1250 4750 2034 4750 
z
" id="DejaVuSans-30" transform="scale(0.015625)"/>
        <path d="M 684 794 
L 1344 794 
L 1344 0 
L 684 0 
L 684 794 
z
" id="DejaVuSans-2e" transform="scale(0.015625)"/>
        <path d="M 2113 2584 
Q 1688 2584 1439 2293 
Q 1191 2003 1191 1497 
Q 1191 994 1439 701 
Q 1688 409 2113 409 
Q 2538 409 2786 701 
Q 3034 994 3034 1497 
Q 3034 2003 2786 2293 
Q 2538 2584 2113 2584 
z
M 3366 4563 
L 3366 3988 
Q 3128 4100 2886 4159 
Q 2644 4219 2406 4219 
Q 1781 4219 1451 3797 
Q 1122 3375 1075 2522 
Q 1259 2794 1537 2939 
Q 1816 3084 2150 3084 
Q 2853 3084 3261 2657 
Q 3669 2231 3669 1497 
Q 3669 778 3244 343 
Q 2819 -91 2113 -91 
Q 1303 -91 875 529 
Q 447 1150 447 2328 
Q 447 3434 972 4092 
Q 1497 4750 2381 4750 
Q 2619 4750 2861 4703 
Q 3103 4656 3366 4563 
z
" id="DejaVuSans-36" transform="scale(0.015625)"/>
       </defs>
       <use xlink:href="#DejaVuSans-2212"/>
       <use x="83.789062" xlink:href="#DejaVuSans-30"/>
       <use x="147.412109" xlink:href="#DejaVuSans-2e"/>
       <use x="179.199219" xlink:href="#DejaVuSans-36"/>
      </g>
     </g>
    </g>
    <g id="xtick_2">
     <g id="line2d_2">
      <g>
       <use style="stroke:#000000;stroke-width:0.8;" x="81.35462" xlink:href="#mfa78b0d3dd" y="378"/>
      </g>
     </g>
     <g id="text_2">
      <!-- −0.4 -->
      <g transform="translate(69.213214 392.598437)scale(0.1 -0.1)">
       <defs>
        <path d="M 2419 4116 
L 825 1625 
L 2419 1625 
L 2419 4116 
z
M 2253 4666 
L 3047 4666 
L 3047 1625 
L 3713 1625 
L 3713 1100 
L 3047 1100 
L 3047 0 
L 2419 0 
L 2419 1100 
L 313 1100 
L 313 1709 
L 2253 4666 
z
" id="DejaVuSans-34" transform="scale(0.015625)"/>
       </defs>
       <use xlink:href="#DejaVuSans-2212"/>
       <use x="83.789062" xlink:href="#DejaVuSans-30"/>
       <use x="147.412109" xlink:href="#DejaVuSans-2e"/>
       <use x="179.199219" xlink:href="#DejaVuSans-34"/>
      </g>
     </g>
    </g>
    <g id="xtick_3">
     <g id="line2d_3">
      <g>
       <use style="stroke:#000000;stroke-width:0.8;" x="126.406664" xlink:href="#mfa78b0d3dd" y="378"/>
      </g>
     </g>
     <g id="text_3">
      <!-- −0.2 -->
      <g transform="translate(114.265258 392.598437)scale(0.1 -0.1)">
       <defs>
        <path d="M 1228 531 
L 3431 531 
L 3431 0 
L 469 0 
L 469 531 
Q 828 903 1448 1529 
Q 2069 2156 2228 2338 
Q 2531 2678 2651 2914 
Q 2772 3150 2772 3378 
Q 2772 3750 2511 3984 
Q 2250 4219 1831 4219 
Q 1534 4219 1204 4116 
Q 875 4013 500 3803 
L 500 4441 
Q 881 4594 1212 4672 
Q 1544 4750 1819 4750 
Q 2544 4750 2975 4387 
Q 3406 4025 3406 3419 
Q 3406 3131 3298 2873 
Q 3191 2616 2906 2266 
Q 2828 2175 2409 1742 
Q 1991 1309 1228 531 
z
" id="DejaVuSans-32" transform="scale(0.015625)"/>
       </defs>
       <use xlink:href="#DejaVuSans-2212"/>
       <use x="83.789062" xlink:href="#DejaVuSans-30"/>
       <use x="147.412109" xlink:href="#DejaVuSans-2e"/>
       <use x="179.199219" xlink:href="#DejaVuSans-32"/>
      </g>
     </g>
    </g>
    <g id="xtick_4">
     <g id="line2d_4">
      <g>
       <use style="stroke:#000000;stroke-width:0.8;" x="171.458708" xlink:href="#mfa78b0d3dd" y="378"/>
      </g>
     </g>
     <g id="text_4">
      <!-- 0.0 -->
      <g transform="translate(163.507145 392.598437)scale(0.1 -0.1)">
       <use xlink:href="#DejaVuSans-30"/>
       <use x="63.623047" xlink:href="#DejaVuSans-2e"/>
       <use x="95.410156" xlink:href="#DejaVuSans-30"/>
      </g>
     </g>
    </g>
    <g id="xtick_5">
     <g id="line2d_5">
      <g>
       <use style="stroke:#000000;stroke-width:0.8;" x="216.510751" xlink:href="#mfa78b0d3dd" y="378"/>
      </g>
     </g>
     <g id="text_5">
      <!-- 0.2 -->
      <g transform="translate(208.559189 392.598437)scale(0.1 -0.1)">
       <use xlink:href="#DejaVuSans-30"/>
       <use x="63.623047" xlink:href="#DejaVuSans-2e"/>
       <use x="95.410156" xlink:href="#DejaVuSans-32"/>
      </g>
     </g>
    </g>
    <g id="text_6">
     <!-- PSE difference -->
     <g transform="translate(100.654766 408.556094)scale(0.13 -0.13)">
      <defs>
       <path d="M 1259 4147 
L 1259 2394 
L 2053 2394 
Q 2494 2394 2734 2622 
Q 2975 2850 2975 3272 
Q 2975 3691 2734 3919 
Q 2494 4147 2053 4147 
L 1259 4147 
z
M 628 4666 
L 2053 4666 
Q 2838 4666 3239 4311 
Q 3641 3956 3641 3272 
Q 3641 2581 3239 2228 
Q 2838 1875 2053 1875 
L 1259 1875 
L 1259 0 
L 628 0 
L 628 4666 
z
" id="DejaVuSans-50" transform="scale(0.015625)"/>
       <path d="M 3425 4513 
L 3425 3897 
Q 3066 4069 2747 4153 
Q 2428 4238 2131 4238 
Q 1616 4238 1336 4038 
Q 1056 3838 1056 3469 
Q 1056 3159 1242 3001 
Q 1428 2844 1947 2747 
L 2328 2669 
Q 3034 2534 3370 2195 
Q 3706 1856 3706 1288 
Q 3706 609 3251 259 
Q 2797 -91 1919 -91 
Q 1588 -91 1214 -16 
Q 841 59 441 206 
L 441 856 
Q 825 641 1194 531 
Q 1563 422 1919 422 
Q 2459 422 2753 634 
Q 3047 847 3047 1241 
Q 3047 1584 2836 1778 
Q 2625 1972 2144 2069 
L 1759 2144 
Q 1053 2284 737 2584 
Q 422 2884 422 3419 
Q 422 4038 858 4394 
Q 1294 4750 2059 4750 
Q 2388 4750 2728 4690 
Q 3069 4631 3425 4513 
z
" id="DejaVuSans-53" transform="scale(0.015625)"/>
       <path d="M 628 4666 
L 3578 4666 
L 3578 4134 
L 1259 4134 
L 1259 2753 
L 3481 2753 
L 3481 2222 
L 1259 2222 
L 1259 531 
L 3634 531 
L 3634 0 
L 628 0 
L 628 4666 
z
" id="DejaVuSans-45" transform="scale(0.015625)"/>
       <path id="DejaVuSans-20" transform="scale(0.015625)"/>
       <path d="M 2906 2969 
L 2906 4863 
L 3481 4863 
L 3481 0 
L 2906 0 
L 2906 525 
Q 2725 213 2448 61 
Q 2172 -91 1784 -91 
Q 1150 -91 751 415 
Q 353 922 353 1747 
Q 353 2572 751 3078 
Q 1150 3584 1784 3584 
Q 2172 3584 2448 3432 
Q 2725 3281 2906 2969 
z
M 947 1747 
Q 947 1113 1208 752 
Q 1469 391 1925 391 
Q 2381 391 2643 752 
Q 2906 1113 2906 1747 
Q 2906 2381 2643 2742 
Q 2381 3103 1925 3103 
Q 1469 3103 1208 2742 
Q 947 2381 947 1747 
z
" id="DejaVuSans-64" transform="scale(0.015625)"/>
       <path d="M 603 3500 
L 1178 3500 
L 1178 0 
L 603 0 
L 603 3500 
z
M 603 4863 
L 1178 4863 
L 1178 4134 
L 603 4134 
L 603 4863 
z
" id="DejaVuSans-69" transform="scale(0.015625)"/>
       <path d="M 2375 4863 
L 2375 4384 
L 1825 4384 
Q 1516 4384 1395 4259 
Q 1275 4134 1275 3809 
L 1275 3500 
L 2222 3500 
L 2222 3053 
L 1275 3053 
L 1275 0 
L 697 0 
L 697 3053 
L 147 3053 
L 147 3500 
L 697 3500 
L 697 3744 
Q 697 4328 969 4595 
Q 1241 4863 1831 4863 
L 2375 4863 
z
" id="DejaVuSans-66" transform="scale(0.015625)"/>
       <path d="M 3597 1894 
L 3597 1613 
L 953 1613 
Q 991 1019 1311 708 
Q 1631 397 2203 397 
Q 2534 397 2845 478 
Q 3156 559 3463 722 
L 3463 178 
Q 3153 47 2828 -22 
Q 2503 -91 2169 -91 
Q 1331 -91 842 396 
Q 353 884 353 1716 
Q 353 2575 817 3079 
Q 1281 3584 2069 3584 
Q 2775 3584 3186 3129 
Q 3597 2675 3597 1894 
z
M 3022 2063 
Q 3016 2534 2758 2815 
Q 2500 3097 2075 3097 
Q 1594 3097 1305 2825 
Q 1016 2553 972 2059 
L 3022 2063 
z
" id="DejaVuSans-65" transform="scale(0.015625)"/>
       <path d="M 2631 2963 
Q 2534 3019 2420 3045 
Q 2306 3072 2169 3072 
Q 1681 3072 1420 2755 
Q 1159 2438 1159 1844 
L 1159 0 
L 581 0 
L 581 3500 
L 1159 3500 
L 1159 2956 
Q 1341 3275 1631 3429 
Q 1922 3584 2338 3584 
Q 2397 3584 2469 3576 
Q 2541 3569 2628 3553 
L 2631 2963 
z
" id="DejaVuSans-72" transform="scale(0.015625)"/>
       <path d="M 3513 2113 
L 3513 0 
L 2938 0 
L 2938 2094 
Q 2938 2591 2744 2837 
Q 2550 3084 2163 3084 
Q 1697 3084 1428 2787 
Q 1159 2491 1159 1978 
L 1159 0 
L 581 0 
L 581 3500 
L 1159 3500 
L 1159 2956 
Q 1366 3272 1645 3428 
Q 1925 3584 2291 3584 
Q 2894 3584 3203 3211 
Q 3513 2838 3513 2113 
z
" id="DejaVuSans-6e" transform="scale(0.015625)"/>
       <path d="M 3122 3366 
L 3122 2828 
Q 2878 2963 2633 3030 
Q 2388 3097 2138 3097 
Q 1578 3097 1268 2742 
Q 959 2388 959 1747 
Q 959 1106 1268 751 
Q 1578 397 2138 397 
Q 2388 397 2633 464 
Q 2878 531 3122 666 
L 3122 134 
Q 2881 22 2623 -34 
Q 2366 -91 2075 -91 
Q 1284 -91 818 406 
Q 353 903 353 1747 
Q 353 2603 823 3093 
Q 1294 3584 2113 3584 
Q 2378 3584 2631 3529 
Q 2884 3475 3122 3366 
z
" id="DejaVuSans-63" transform="scale(0.015625)"/>
      </defs>
      <use xlink:href="#DejaVuSans-50"/>
      <use x="60.302734" xlink:href="#DejaVuSans-53"/>
      <use x="123.779297" xlink:href="#DejaVuSans-45"/>
      <use x="186.962891" xlink:href="#DejaVuSans-20"/>
      <use x="218.75" xlink:href="#DejaVuSans-64"/>
      <use x="282.226562" xlink:href="#DejaVuSans-69"/>
      <use x="310.009766" xlink:href="#DejaVuSans-66"/>
      <use x="345.214844" xlink:href="#DejaVuSans-66"/>
      <use x="380.419922" xlink:href="#DejaVuSans-65"/>
      <use x="441.943359" xlink:href="#DejaVuSans-72"/>
      <use x="480.806641" xlink:href="#DejaVuSans-65"/>
      <use x="542.330078" xlink:href="#DejaVuSans-6e"/>
      <use x="605.708984" xlink:href="#DejaVuSans-63"/>
      <use x="660.689453" xlink:href="#DejaVuSans-65"/>
     </g>
    </g>
   </g>
   <g id="matplotlib.axis_2">
    <g id="ytick_1">
     <g id="line2d_6">
      <defs>
       <path d="M 0 0 
L -3.5 0 
" id="m2e729475d1" style="stroke:#000000;stroke-width:0.8;"/>
      </defs>
      <g>
       <use style="stroke:#000000;stroke-width:0.8;" x="36" xlink:href="#m2e729475d1" y="113.482679"/>
      </g>
     </g>
     <g id="text_7">
      <!-- 1 -->
      <g transform="translate(22.6375 117.281898)scale(0.1 -0.1)">
       <defs>
        <path d="M 794 531 
L 1825 531 
L 1825 4091 
L 703 3866 
L 703 4441 
L 1819 4666 
L 2450 4666 
L 2450 531 
L 3481 531 
L 3481 0 
L 794 0 
L 794 531 
z
" id="DejaVuSans-31" transform="scale(0.015625)"/>
       </defs>
       <use xlink:href="#DejaVuSans-31"/>
      </g>
     </g>
    </g>
    <g id="ytick_2">
     <g id="line2d_7">
      <g>
       <use style="stroke:#000000;stroke-width:0.8;" x="36" xlink:href="#m2e729475d1" y="175.905646"/>
      </g>
     </g>
     <g id="text_8">
      <!-- 2 -->
      <g transform="translate(22.6375 179.704865)scale(0.1 -0.1)">
       <use xlink:href="#DejaVuSans-32"/>
      </g>
     </g>
    </g>
    <g id="ytick_3">
     <g id="line2d_8">
      <g>
       <use style="stroke:#000000;stroke-width:0.8;" x="36" xlink:href="#m2e729475d1" y="238.328612"/>
      </g>
     </g>
     <g id="text_9">
      <!-- 3 -->
      <g transform="translate(22.6375 242.127831)scale(0.1 -0.1)">
       <defs>
        <path d="M 2597 2516 
Q 3050 2419 3304 2112 
Q 3559 1806 3559 1356 
Q 3559 666 3084 287 
Q 2609 -91 1734 -91 
Q 1441 -91 1130 -33 
Q 819 25 488 141 
L 488 750 
Q 750 597 1062 519 
Q 1375 441 1716 441 
Q 2309 441 2620 675 
Q 2931 909 2931 1356 
Q 2931 1769 2642 2001 
Q 2353 2234 1838 2234 
L 1294 2234 
L 1294 2753 
L 1863 2753 
Q 2328 2753 2575 2939 
Q 2822 3125 2822 3475 
Q 2822 3834 2567 4026 
Q 2313 4219 1838 4219 
Q 1578 4219 1281 4162 
Q 984 4106 628 3988 
L 628 4550 
Q 988 4650 1302 4700 
Q 1616 4750 1894 4750 
Q 2613 4750 3031 4423 
Q 3450 4097 3450 3541 
Q 3450 3153 3228 2886 
Q 3006 2619 2597 2516 
z
" id="DejaVuSans-33" transform="scale(0.015625)"/>
       </defs>
       <use xlink:href="#DejaVuSans-33"/>
      </g>
     </g>
    </g>
    <g id="ytick_4">
     <g id="line2d_9">
      <g>
       <use style="stroke:#000000;stroke-width:0.8;" x="36" xlink:href="#m2e729475d1" y="300.751579"/>
      </g>
     </g>
     <g id="text_10">
      <!-- 4 -->
      <g transform="translate(22.6375 304.550798)scale(0.1 -0.1)">
       <use xlink:href="#DejaVuSans-34"/>
      </g>
     </g>
    </g>
    <g id="text_11">
     <!-- PPS Quartile -->
     <g transform="translate(15.933906 255.001641)rotate(-90)scale(0.13 -0.13)">
      <defs>
       <path d="M 2522 4238 
Q 1834 4238 1429 3725 
Q 1025 3213 1025 2328 
Q 1025 1447 1429 934 
Q 1834 422 2522 422 
Q 3209 422 3611 934 
Q 4013 1447 4013 2328 
Q 4013 3213 3611 3725 
Q 3209 4238 2522 4238 
z
M 3406 84 
L 4238 -825 
L 3475 -825 
L 2784 -78 
Q 2681 -84 2626 -87 
Q 2572 -91 2522 -91 
Q 1538 -91 948 567 
Q 359 1225 359 2328 
Q 359 3434 948 4092 
Q 1538 4750 2522 4750 
Q 3503 4750 4090 4092 
Q 4678 3434 4678 2328 
Q 4678 1516 4351 937 
Q 4025 359 3406 84 
z
" id="DejaVuSans-51" transform="scale(0.015625)"/>
       <path d="M 544 1381 
L 544 3500 
L 1119 3500 
L 1119 1403 
Q 1119 906 1312 657 
Q 1506 409 1894 409 
Q 2359 409 2629 706 
Q 2900 1003 2900 1516 
L 2900 3500 
L 3475 3500 
L 3475 0 
L 2900 0 
L 2900 538 
Q 2691 219 2414 64 
Q 2138 -91 1772 -91 
Q 1169 -91 856 284 
Q 544 659 544 1381 
z
M 1991 3584 
L 1991 3584 
z
" id="DejaVuSans-75" transform="scale(0.015625)"/>
       <path d="M 2194 1759 
Q 1497 1759 1228 1600 
Q 959 1441 959 1056 
Q 959 750 1161 570 
Q 1363 391 1709 391 
Q 2188 391 2477 730 
Q 2766 1069 2766 1631 
L 2766 1759 
L 2194 1759 
z
M 3341 1997 
L 3341 0 
L 2766 0 
L 2766 531 
Q 2569 213 2275 61 
Q 1981 -91 1556 -91 
Q 1019 -91 701 211 
Q 384 513 384 1019 
Q 384 1609 779 1909 
Q 1175 2209 1959 2209 
L 2766 2209 
L 2766 2266 
Q 2766 2663 2505 2880 
Q 2244 3097 1772 3097 
Q 1472 3097 1187 3025 
Q 903 2953 641 2809 
L 641 3341 
Q 956 3463 1253 3523 
Q 1550 3584 1831 3584 
Q 2591 3584 2966 3190 
Q 3341 2797 3341 1997 
z
" id="DejaVuSans-61" transform="scale(0.015625)"/>
       <path d="M 1172 4494 
L 1172 3500 
L 2356 3500 
L 2356 3053 
L 1172 3053 
L 1172 1153 
Q 1172 725 1289 603 
Q 1406 481 1766 481 
L 2356 481 
L 2356 0 
L 1766 0 
Q 1100 0 847 248 
Q 594 497 594 1153 
L 594 3053 
L 172 3053 
L 172 3500 
L 594 3500 
L 594 4494 
L 1172 4494 
z
" id="DejaVuSans-74" transform="scale(0.015625)"/>
       <path d="M 603 4863 
L 1178 4863 
L 1178 0 
L 603 0 
L 603 4863 
z
" id="DejaVuSans-6c" transform="scale(0.015625)"/>
      </defs>
      <use xlink:href="#DejaVuSans-50"/>
      <use x="60.302734" xlink:href="#DejaVuSans-50"/>
      <use x="120.605469" xlink:href="#DejaVuSans-53"/>
      <use x="184.082031" xlink:href="#DejaVuSans-20"/>
      <use x="215.869141" xlink:href="#DejaVuSans-51"/>
      <use x="294.580078" xlink:href="#DejaVuSans-75"/>
      <use x="357.958984" xlink:href="#DejaVuSans-61"/>
      <use x="419.238281" xlink:href="#DejaVuSans-72"/>
      <use x="460.351562" xlink:href="#DejaVuSans-74"/>
      <use x="499.560547" xlink:href="#DejaVuSans-69"/>
      <use x="527.34375" xlink:href="#DejaVuSans-6c"/>
      <use x="555.126953" xlink:href="#DejaVuSans-65"/>
     </g>
    </g>
   </g>
   <g id="line2d_10">
    <path clip-path="url(#pc50d6decf1)" d="M 135.142169 113.482679 
L 198.89921 113.482679 
" style="fill:none;stroke:#2f2f2f;stroke-linecap:square;stroke-width:1.5;"/>
   </g>
   <g id="line2d_11">
    <path clip-path="url(#pc50d6decf1)" d="M 145.835323 113.482679 
L 170.264265 113.482679 
" style="fill:none;stroke:#2f2f2f;stroke-linecap:square;stroke-width:4.5;"/>
   </g>
   <g id="line2d_12">
    <path clip-path="url(#pc50d6decf1)" d="M 117.474864 175.905646 
L 213.010212 175.905646 
" style="fill:none;stroke:#2f2f2f;stroke-linecap:square;stroke-width:1.5;"/>
   </g>
   <g id="line2d_13">
    <path clip-path="url(#pc50d6decf1)" d="M 149.112028 175.905646 
L 175.618882 175.905646 
" style="fill:none;stroke:#2f2f2f;stroke-linecap:square;stroke-width:4.5;"/>
   </g>
   <g id="line2d_14">
    <path clip-path="url(#pc50d6decf1)" d="M 142.202847 238.328612 
L 206.350511 238.328612 
" style="fill:none;stroke:#2f2f2f;stroke-linecap:square;stroke-width:1.5;"/>
   </g>
   <g id="line2d_15">
    <path clip-path="url(#pc50d6decf1)" d="M 158.491886 238.328612 
L 182.124953 238.328612 
" style="fill:none;stroke:#2f2f2f;stroke-linecap:square;stroke-width:4.5;"/>
   </g>
   <g id="line2d_16">
    <path clip-path="url(#pc50d6decf1)" d="M 117.607172 300.751579 
L 221.009746 300.751579 
" style="fill:none;stroke:#2f2f2f;stroke-linecap:square;stroke-width:1.5;"/>
   </g>
   <g id="line2d_17">
    <path clip-path="url(#pc50d6decf1)" d="M 159.806756 300.751579 
L 196.498947 300.751579 
" style="fill:none;stroke:#2f2f2f;stroke-linecap:square;stroke-width:4.5;"/>
   </g>
   <g id="line2d_18">
    <path clip-path="url(#pc50d6decf1)" d="M 171.458708 66.665455 
L 171.458708 363.174545 
" style="fill:none;stroke:#000000;stroke-linecap:square;stroke-opacity:0.1;stroke-width:1.5;"/>
   </g>
   <g id="patch_3">
    <path d="M 36 378 
L 36 51.84 
" style="fill:none;stroke:#000000;stroke-linecap:square;stroke-linejoin:miter;stroke-width:0.8;"/>
   </g>
   <g id="patch_4">
    <path d="M 259.2 378 
L 259.2 51.84 
" style="fill:none;stroke:#000000;stroke-linecap:square;stroke-linejoin:miter;stroke-width:0.8;"/>
   </g>
   <g id="patch_5">
    <path d="M 36 378 
L 259.2 378 
" style="fill:none;stroke:#000000;stroke-linecap:square;stroke-linejoin:miter;stroke-width:0.8;"/>
   </g>
   <g id="patch_6">
    <path d="M 36 51.84 
L 259.2 51.84 
" style="fill:none;stroke:#000000;stroke-linecap:square;stroke-linejoin:miter;stroke-width:0.8;"/>
   </g>
   <g id="PathCollection_1">
    <defs>
     <path d="M 0 1.5 
C 0.397805 1.5 0.77937 1.341951 1.06066 1.06066 
C 1.341951 0.77937 1.5 0.397805 1.5 0 
C 1.5 -0.397805 1.341951 -0.77937 1.06066 -1.06066 
C 0.77937 -1.341951 0.397805 -1.5 0 -1.5 
C -0.397805 -1.5 -0.77937 -1.341951 -1.06066 -1.06066 
C -1.341951 -0.77937 -1.5 -0.397805 -1.5 0 
C -1.5 0.397805 -1.341951 0.77937 -1.06066 1.06066 
C -0.77937 1.341951 -0.397805 1.5 0 1.5 
z
" id="mbc987b08d9" style="stroke:#2f2f2f;stroke-opacity:0.6;"/>
    </defs>
    <g clip-path="url(#pc50d6decf1)">
     <use style="fill:#ffffff;fill-opacity:0.6;stroke:#2f2f2f;stroke-opacity:0.6;" x="162.357735" xlink:href="#mbc987b08d9" y="113.482679"/>
    </g>
   </g>
   <g id="PathCollection_2">
    <g clip-path="url(#pc50d6decf1)">
     <use style="fill:#ffffff;fill-opacity:0.6;stroke:#2f2f2f;stroke-opacity:0.6;" x="164.878229" xlink:href="#mbc987b08d9" y="175.905646"/>
    </g>
   </g>
   <g id="PathCollection_3">
    <g clip-path="url(#pc50d6decf1)">
     <use style="fill:#ffffff;fill-opacity:0.6;stroke:#2f2f2f;stroke-opacity:0.6;" x="169.700623" xlink:href="#mbc987b08d9" y="238.328612"/>
    </g>
   </g>
   <g id="PathCollection_4">
    <g clip-path="url(#pc50d6decf1)">
     <use style="fill:#ffffff;fill-opacity:0.6;stroke:#2f2f2f;stroke-opacity:0.6;" x="185.48991" xlink:href="#mbc987b08d9" y="300.751579"/>
    </g>
   </g>
  </g>
 </g>
 <defs>
  <clipPath id="pc50d6decf1">
   <rect height="326.16" width="223.2" x="36" y="51.84"/>
  </clipPath>
 </defs>
</svg>
